<svg width="229" height="228" viewBox="0 0 229 228" fill="none" xmlns="http://www.w3.org/2000/svg">
<path fill-rule="evenodd" clip-rule="evenodd" d="M100.186 48.199C100.145 52.232 99.2099 52.621 89.5529 52.621C75.8389 52.621 70.2769 56.768 70.2769 66.994C70.2769 71.029 71.7109 76.522 73.4659 79.198C76.2199 83.404 78.1279 84.066 87.4759 84.066C95.3509 84.066 98.6119 84.88 99.4449 87.056C100.257 89.168 102.528 87.009 107.192 79.686C110.823 73.988 113.796 68.442 113.8 67.361C113.802 66.28 110.751 60.532 107.018 54.587C101.823 46.313 100.22 44.815 100.186 48.199ZM123.718 61.19C123.718 64.824 124.274 71.85 124.954 76.809L126.188 85.82L151.48 86.417C165.392 86.745 176.772 86.68 176.77 86.272C176.76 84.318 163.911 62.908 160.408 59.009C156.891 55.096 154.553 54.587 140.077 54.587H123.718V61.19ZM53.3329 83.493C48.8199 90.965 45.1279 99.392 45.1279 102.222C45.1279 106.463 57.8159 131.234 59.9869 131.234C60.5809 131.234 84.5639 117.559 86.0499 116.374C86.4029 116.091 82.7389 108.928 77.9079 100.455C73.0749 91.981 67.4139 81.643 65.3289 77.479L61.5379 69.91L53.3329 83.493ZM153.079 101.261C149.826 106.392 145.888 111.04 144.33 111.587C142.073 112.379 142.692 114.674 147.383 122.891L153.268 133.199H166.241C176.965 133.199 178.827 132.736 176.992 130.523C175.297 128.479 175.963 125.244 179.808 116.84C185.557 104.282 184.57 99.929 174.841 94.895C164.449 89.52 159.63 90.929 153.079 101.261ZM86.6079 138.899C78.6819 139.984 77.5209 140.909 72.1749 150.396L66.3609 160.714L70.9699 160.718C74.2969 160.72 77.1399 163.186 81.1649 169.562C86.0499 177.295 87.6099 178.402 93.6399 178.402C98.8129 178.402 101.949 176.882 106.23 172.297C113.203 164.829 113.275 162.77 106.921 152.699C103.795 147.745 102.369 143.331 103.123 140.947C104.45 136.772 103.253 136.623 86.6079 138.899ZM123.696 156.292C118.089 166.83 112.126 177.002 110.446 178.893C107.564 182.138 108.326 182.332 123.96 182.332C135.422 182.332 141.807 181.434 144.688 179.418C150.095 175.629 161.612 155.193 160.288 151.74C159.449 149.553 137.738 137.13 134.756 137.13C134.281 137.13 129.304 145.754 123.696 156.292Z" fill="#fff"/>
<path d="M107.128 4.51196C107.128 6.72096 105.337 8.51196 103.128 8.51196C100.919 8.51196 99.1279 6.72096 99.1279 4.51196C99.1279 2.30296 100.919 0.511963 103.128 0.511963C105.337 0.511963 107.128 2.30296 107.128 4.51196Z" fill="#fff"/>
<path d="M130.128 4.51196C130.128 6.72096 128.337 8.51196 126.128 8.51196C123.919 8.51196 122.128 6.72096 122.128 4.51196C122.128 2.30296 123.919 0.511963 126.128 0.511963C128.337 0.511963 130.128 2.30296 130.128 4.51196Z" fill="#fff"/>
<path d="M150.128 8.51196C150.128 10.721 148.337 12.512 146.128 12.512C143.919 12.512 142.128 10.721 142.128 8.51196C142.128 6.30296 143.919 4.51196 146.128 4.51196C148.337 4.51196 150.128 6.30296 150.128 8.51196Z" fill="#fff"/>
<path d="M173.128 16.512C173.128 18.721 171.337 20.512 169.128 20.512C166.919 20.512 165.128 18.721 165.128 16.512C165.128 14.303 166.919 12.512 169.128 12.512C171.337 12.512 173.128 14.303 173.128 16.512Z" fill="#fff"/>
<path d="M191.128 30.512C191.128 32.721 189.337 34.512 187.128 34.512C184.919 34.512 183.128 32.721 183.128 30.512C183.128 28.303 184.919 26.512 187.128 26.512C189.337 26.512 191.128 28.303 191.128 30.512Z" fill="#fff"/>
<path d="M208.128 49.512C208.128 51.721 206.337 53.512 204.128 53.512C201.919 53.512 200.128 51.721 200.128 49.512C200.128 47.303 201.919 45.512 204.128 45.512C206.337 45.512 208.128 47.303 208.128 49.512Z" fill="#fff"/>
<path d="M219.128 68.512C219.128 70.721 217.337 72.512 215.128 72.512C212.919 72.512 211.128 70.721 211.128 68.512C211.128 66.303 212.919 64.512 215.128 64.512C217.337 64.512 219.128 66.303 219.128 68.512Z" fill="#fff"/>
<path d="M226.128 91.512C226.128 93.721 224.337 95.512 222.128 95.512C219.919 95.512 218.128 93.721 218.128 91.512C218.128 89.303 219.919 87.512 222.128 87.512C224.337 87.512 226.128 89.303 226.128 91.512Z" fill="#fff"/>
<path d="M228.128 114.512C228.128 116.721 226.337 118.512 224.128 118.512C221.919 118.512 220.128 116.721 220.128 114.512C220.128 112.303 221.919 110.512 224.128 110.512C226.337 110.512 228.128 112.303 228.128 114.512Z" fill="#fff"/>
<path d="M226.128 137.512C226.128 139.721 224.337 141.512 222.128 141.512C219.919 141.512 218.128 139.721 218.128 137.512C218.128 135.303 219.919 133.512 222.128 133.512C224.337 133.512 226.128 135.303 226.128 137.512Z" fill="#fff"/>
<path d="M219.128 159.512C219.128 161.721 217.337 163.512 215.128 163.512C212.919 163.512 211.128 161.721 211.128 159.512C211.128 157.303 212.919 155.512 215.128 155.512C217.337 155.512 219.128 157.303 219.128 159.512Z" fill="#fff"/>
<path d="M208.128 180.512C208.128 182.721 206.337 184.512 204.128 184.512C201.919 184.512 200.128 182.721 200.128 180.512C200.128 178.303 201.919 176.512 204.128 176.512C206.337 176.512 208.128 178.303 208.128 180.512Z" fill="#fff"/>
<path d="M191.128 197.512C191.128 199.721 189.337 201.512 187.128 201.512C184.919 201.512 183.128 199.721 183.128 197.512C183.128 195.303 184.919 193.512 187.128 193.512C189.337 193.512 191.128 195.303 191.128 197.512Z" fill="#fff"/>
<path d="M173.128 210.512C173.128 212.721 171.337 214.512 169.128 214.512C166.919 214.512 165.128 212.721 165.128 210.512C165.128 208.303 166.919 206.512 169.128 206.512C171.337 206.512 173.128 208.303 173.128 210.512Z" fill="#fff"/>
<path d="M154.128 218.512C154.128 220.721 152.337 222.512 150.128 222.512C147.919 222.512 146.128 220.721 146.128 218.512C146.128 216.303 147.919 214.512 150.128 214.512C152.337 214.512 154.128 216.303 154.128 218.512Z" fill="#fff"/>
<path d="M134.128 223.512C134.128 225.721 132.337 227.512 130.128 227.512C127.919 227.512 126.128 225.721 126.128 223.512C126.128 221.303 127.919 219.512 130.128 219.512C132.337 219.512 134.128 221.303 134.128 223.512Z" fill="#fff"/>
<path d="M111.128 223.512C111.128 225.721 109.337 227.512 107.128 227.512C104.919 227.512 103.128 225.721 103.128 223.512C103.128 221.303 104.919 219.512 107.128 219.512C109.337 219.512 111.128 221.303 111.128 223.512Z" fill="#fff"/>
<path d="M88.1279 219.512C88.1279 221.721 86.3369 223.512 84.1279 223.512C81.9189 223.512 80.1279 221.721 80.1279 219.512C80.1279 217.303 81.9189 215.512 84.1279 215.512C86.3369 215.512 88.1279 217.303 88.1279 219.512Z" fill="#fff"/>
<path d="M66.1279 210.512C66.1279 212.721 64.3369 214.512 62.1279 214.512C59.9189 214.512 58.1279 212.721 58.1279 210.512C58.1279 208.303 59.9189 206.512 62.1279 206.512C64.3369 206.512 66.1279 208.303 66.1279 210.512Z" fill="#fff"/>
<path d="M44.1279 197.512C44.1279 199.721 42.3369 201.512 40.1279 201.512C37.9189 201.512 36.1279 199.721 36.1279 197.512C36.1279 195.303 37.9189 193.512 40.1279 193.512C42.3369 193.512 44.1279 195.303 44.1279 197.512Z" fill="#fff"/>
<path d="M29.1279 180.512C29.1279 182.721 27.3369 184.512 25.1279 184.512C22.9189 184.512 21.1279 182.721 21.1279 180.512C21.1279 178.303 22.9189 176.512 25.1279 176.512C27.3369 176.512 29.1279 178.303 29.1279 180.512Z" fill="#fff"/>
<path d="M17.1279 159.512C17.1279 161.721 15.3369 163.512 13.1279 163.512C10.9189 163.512 9.12793 161.721 9.12793 159.512C9.12793 157.303 10.9189 155.512 13.1279 155.512C15.3369 155.512 17.1279 157.303 17.1279 159.512Z" fill="#fff"/>
<path d="M11.1279 137.512C11.1279 139.721 9.33693 141.512 7.12793 141.512C4.91893 141.512 3.12793 139.721 3.12793 137.512C3.12793 135.303 4.91893 133.512 7.12793 133.512C9.33693 133.512 11.1279 135.303 11.1279 137.512Z" fill="#fff"/>
<path d="M8.12793 117.512C8.12793 119.721 6.33693 121.512 4.12793 121.512C1.91893 121.512 0.12793 119.721 0.12793 117.512C0.12793 115.303 1.91893 113.512 4.12793 113.512C6.33693 113.512 8.12793 115.303 8.12793 117.512Z" fill="#fff"/>
<path d="M9.12793 95.512C9.12793 97.721 7.33693 99.512 5.12793 99.512C2.91893 99.512 1.12793 97.721 1.12793 95.512C1.12793 93.303 2.91893 91.512 5.12793 91.512C7.33693 91.512 9.12793 93.303 9.12793 95.512Z" fill="#fff"/>
<path d="M17.1279 72.512C17.1279 74.721 15.3369 76.512 13.1279 76.512C10.9189 76.512 9.12793 74.721 9.12793 72.512C9.12793 70.303 10.9189 68.512 13.1279 68.512C15.3369 68.512 17.1279 70.303 17.1279 72.512Z" fill="#fff"/>
<path d="M29.1279 49.512C29.1279 51.721 27.3369 53.512 25.1279 53.512C22.9189 53.512 21.1279 51.721 21.1279 49.512C21.1279 47.303 22.9189 45.512 25.1279 45.512C27.3369 45.512 29.1279 47.303 29.1279 49.512Z" fill="#fff"/>
<path d="M44.1279 30.512C44.1279 32.721 42.3369 34.512 40.1279 34.512C37.9189 34.512 36.1279 32.721 36.1279 30.512C36.1279 28.303 37.9189 26.512 40.1279 26.512C42.3369 26.512 44.1279 28.303 44.1279 30.512Z" fill="#fff"/>
<path d="M62.1279 16.512C62.1279 18.721 60.3369 20.512 58.1279 20.512C55.9189 20.512 54.1279 18.721 54.1279 16.512C54.1279 14.303 55.9189 12.512 58.1279 12.512C60.3369 12.512 62.1279 14.303 62.1279 16.512Z" fill="#fff"/>
<path d="M84.1279 8.51196C84.1279 10.721 82.3369 12.512 80.1279 12.512C77.9189 12.512 76.1279 10.721 76.1279 8.51196C76.1279 6.30296 77.9189 4.51196 80.1279 4.51196C82.3369 4.51196 84.1279 6.30296 84.1279 8.51196Z" fill="#fff"/>
</svg>
