<?xml version="1.0" encoding="utf-8"?>
<!-- Generator: Adobe Illustrator 16.0.0, SVG Export Plug-In . SVG Version: 6.00 Build 0)  -->
<!DOCTYPE svg PUBLIC "-//W3C//DTD SVG 1.1//EN" "http://www.w3.org/Graphics/SVG/1.1/DTD/svg11.dtd">
<svg version="1.1" id="Capa_1" xmlns="http://www.w3.org/2000/svg" xmlns:xlink="http://www.w3.org/1999/xlink" x="0px" y="0px"
	 width="206em" height="55em" viewBox="0 0 150 40" enable-background="new 0 0 150 40" xml:space="preserve">
<g>
	<polygon fill="#62A0C0" points="14.607,32.521 14.607,7.475 30.813,7.475 30.813,11.895 19.692,11.895 19.692,17.752 
		28.604,17.752 28.604,22.098 19.692,22.098 19.692,28.102 30.813,28.102 30.813,32.521 	"/>
	<polygon fill="#62A0C0" points="33.662,32.521 33.662,7.475 42.246,7.475 48.286,28.102 48.658,28.102 48.658,7.475 53.737,7.475 
		53.737,32.521 45.376,32.521 39.116,11.895 38.747,11.895 38.747,32.521 	"/>
	<path fill="#4F555A" d="M73.692,32.115c-2.605,0.564-4.949,0.846-7.036,0.846c-2.089,0-3.759-0.256-5.01-0.77
		c-1.253-0.52-2.235-1.34-2.947-2.469c-0.711-1.129-1.203-2.455-1.473-3.98c-0.271-1.521-0.406-3.436-0.406-5.746
		c0-4.837,0.682-8.205,2.047-10.11c1.359-1.901,3.871-2.851,7.529-2.851c2.114,0,4.556,0.329,7.328,0.992L73.58,12.08
		c-2.435-0.369-4.452-0.554-6.059-0.554c-1.612,0-2.759,0.216-3.446,0.644c-0.688,0.433-1.197,1.25-1.526,2.45
		c-0.332,1.203-0.5,3.254-0.5,6.151c0,2.896,0.337,4.904,1.014,6.021c0.675,1.117,2.026,1.678,4.052,1.678s4.182-0.174,6.465-0.516
		L73.692,32.115z"/>
	<path fill="#4F555A" d="M93.424,29.852c-1.562,2.074-4.243,3.113-8.048,3.113c-3.807,0-6.491-1.039-8.047-3.113
		c-1.561-2.076-2.342-5.322-2.342-9.741c0-4.422,0.781-7.708,2.342-9.855c1.556-2.149,4.24-3.22,8.047-3.22
		c3.805,0,6.486,1.071,8.048,3.22c1.559,2.148,2.339,5.434,2.339,9.855C95.763,24.529,94.982,27.775,93.424,29.852 M81.307,26.607
		c0.722,1.291,2.081,1.936,4.069,1.936c1.989,0,3.343-0.645,4.07-1.936c0.723-1.287,1.086-3.449,1.086-6.479
		c0-3.036-0.369-5.237-1.104-6.612c-0.738-1.375-2.09-2.063-4.052-2.063c-1.965,0-3.315,0.688-4.051,2.063
		c-0.738,1.375-1.104,3.577-1.104,6.612C80.221,23.158,80.581,25.32,81.307,26.607"/>
	<path fill="#4F555A" d="M107.137,32.52h-8.435V7.476h8.435c2.158,0,3.939,0.226,5.339,0.679c1.402,0.458,2.488,1.207,3.261,2.249
		c0.772,1.045,1.306,2.274,1.601,3.684c0.295,1.411,0.443,3.247,0.443,5.507c0,2.258-0.138,4.131-0.406,5.616
		c-0.271,1.484-0.777,2.813-1.529,3.979c-0.746,1.166-1.837,2.014-3.258,2.541C111.164,32.258,109.346,32.52,107.137,32.52
		 M112.476,22.578c0.051-0.789,0.074-1.877,0.074-3.261c0-1.386-0.048-2.5-0.151-3.332c-0.095-0.836-0.326-1.6-0.695-2.286
		c-0.369-0.688-0.916-1.161-1.638-1.417c-0.728-0.259-1.702-0.388-2.929-0.388h-3.354v16.207h3.354c1.84,0,3.178-0.463,4.012-1.4
		C111.862,25.939,112.304,24.563,112.476,22.578"/>
	<polygon fill="#4F555A" points="120.791,32.521 120.791,7.475 137,7.475 137,11.895 125.876,11.895 125.876,17.752 134.788,17.752 
		134.788,22.098 125.876,22.098 125.876,28.102 137,28.102 137,32.521 	"/>
</g>
</svg>
