<svg width="375" height="111" viewBox="0 0 375 111" fill="none" xmlns="http://www.w3.org/2000/svg">
<path d="M0 0.67573H11.6053V66.3571H32.2947V77.3037H0V0.67573Z" fill="#302413"/>
<path d="M41.2676 0.67573H74.2156V11.6224H52.8729V32.9704H69.8383V43.9171H52.8729V66.3571H74.2156V77.3037H41.2676V0.67573Z" fill="#302413"/>
<path d="M123.477 66.3567C125.738 66.3567 127.491 65.7367 128.733 64.4954C129.973 63.2554 130.591 61.502 130.591 59.242V18.738C130.591 16.4767 129.973 14.7274 128.733 13.4847C127.491 12.246 125.738 11.6234 123.477 11.6234H117.458V66.3567H123.477ZM105.853 0.675364H124.026C129.57 0.675364 133.986 2.33803 137.269 5.65937C140.555 8.9807 142.197 13.414 142.197 18.958V59.022C142.197 64.5687 140.555 69.002 137.269 72.3234C133.986 75.6447 129.57 77.3034 124.026 77.3034H105.853V0.675364Z" fill="#302413"/>
<path d="M158.396 73.4153C155.04 70.098 153.36 65.7727 153.36 60.446V0.675333H164.965V60.446C164.965 62.6327 165.567 64.3513 166.771 65.59C167.975 66.8327 169.525 67.4513 171.421 67.4513C173.318 67.4513 174.868 66.8327 176.072 65.59C177.28 64.3513 177.881 62.6327 177.881 60.446V0.675333H189.265V60.446C189.265 65.7727 187.621 70.098 184.339 73.4153C181.056 76.7367 176.748 78.398 171.421 78.398C166.094 78.398 161.752 76.7367 158.396 73.4153Z" fill="#302413"/>
<path d="M213.126 34.72H219.145C221.406 34.72 223.16 34.1013 224.402 32.8587C225.641 31.62 226.261 29.8693 226.261 27.6053V18.7373C226.261 16.476 225.641 14.7267 224.402 13.484C223.16 12.2453 221.406 11.6227 219.145 11.6227H213.126V34.72ZM227.576 77.3027L219.145 45.6667H213.126V77.3027H201.521V0.675994H219.694C225.238 0.675994 229.654 2.33866 232.937 5.65999C236.224 8.97999 237.865 13.4147 237.865 18.9573V27.3853C237.865 30.888 237.169 33.992 235.786 36.6907C234.397 39.392 232.426 41.5053 229.872 43.0387L239.614 77.3027H227.576Z" fill="#302413"/>
<path d="M249.137 0.67573H282.085V11.6224H260.741V32.9704H277.708V43.9171H260.741V66.3571H282.085V77.3037H249.137V0.67573Z" fill="#302413"/>
<path d="M314.271 49.1699L309.565 17.0965L304.857 49.1699H314.271ZM315.805 60.3339H303.325L300.805 77.3032H289.203L301.901 0.675211H317.446L330.142 77.3032H318.321L315.805 60.3339Z" fill="#302413"/>
<path d="M343.276 73.4153C339.92 70.098 338.24 65.7727 338.24 60.446V0.675333H349.845V60.446C349.845 62.6327 350.447 64.3513 351.651 65.59C352.855 66.8327 354.405 67.4513 356.303 67.4513C358.199 67.4513 359.748 66.8327 360.953 65.59C362.16 64.3513 362.763 62.6327 362.763 60.446V0.675333H374.147V60.446C374.147 65.7727 372.501 70.098 369.219 73.4153C365.936 76.7367 361.628 78.398 356.303 78.398C350.975 78.398 346.632 76.7367 343.276 73.4153Z" fill="#302413"/>
<path d="M26.416 71.6601H5.09866V5.70014" stroke="white" stroke-width="0.753333" stroke-miterlimit="10"/>
<path d="M110.988 5.69986H123.504C127.323 5.69986 130.364 6.84386 132.627 9.13052C134.888 11.4185 136.019 14.4719 136.019 18.2905V59.1439C136.019 62.9652 134.888 66.0185 132.627 68.3052C130.364 70.5932 127.323 71.7359 123.504 71.7359H110.988V5.69986Z" stroke="white" stroke-width="0.753333" stroke-miterlimit="10"/>
<path d="M184.354 5.2044V56.7204C184.354 61.3111 183.155 65.0377 180.757 67.9004C178.358 70.7631 175.214 72.1937 171.325 72.1937C167.434 72.1937 164.263 70.7631 161.813 67.9004C159.361 65.0377 158.135 61.3111 158.135 56.7204V5.2044" stroke="white" stroke-width="0.753333" stroke-miterlimit="10"/>
<path d="M369.366 5.2044V56.7204C369.366 61.3111 368.166 65.0377 365.769 67.9004C363.37 70.7631 360.226 72.1937 356.337 72.1937C352.446 72.1937 349.275 70.7631 346.825 67.9004C344.373 65.0377 343.147 61.3111 343.147 56.7204V5.2044" stroke="white" stroke-width="0.753333" stroke-miterlimit="10"/>
<path d="M207.305 72.0696V5.60296H220.373C224.361 5.60296 227.536 6.79762 229.897 9.18429C232.259 11.5723 233.44 14.7616 233.44 18.7483V24.8096C233.44 27.3283 232.852 30.1523 231.549 32.5003C229.793 35.663 226.624 38.8976 222.911 39.767L232.061 72.1936" stroke="white" stroke-width="0.753333" stroke-miterlimit="10"/>
<path d="M295.979 72.1933L306.213 5.14535H312.633L322.868 72.1933" stroke="white" stroke-width="0.753333" stroke-miterlimit="10"/>
<path d="M68.3613 71.6601H47.044V38.6801V5.70014H68.3613" stroke="white" stroke-width="0.753333" stroke-miterlimit="10"/>
<path d="M63.1511 38.6796H47.0444" stroke="white" stroke-width="0.753333" stroke-miterlimit="10"/>
<path d="M275.463 71.6601H254.146V38.6801V5.70014H275.463" stroke="white" stroke-width="0.753333" stroke-miterlimit="10"/>
<path d="M270.252 38.6796H254.145" stroke="white" stroke-width="0.753333" stroke-miterlimit="10"/>
<path d="M298.749 54.0443H320.098" stroke="white" stroke-width="0.753333" stroke-miterlimit="10"/>
<path d="M78 103H120" stroke="#C1B6A2" stroke-width="1.12933" stroke-miterlimit="10"/>
<path d="M254.952 103.402H296.952" stroke="#C1B6A2" stroke-width="1.12933" stroke-miterlimit="10"/>
<path d="M129.843 107.152C129.026 107.152 128.383 106.991 127.915 106.669C127.456 106.348 127.134 105.912 126.95 105.361C126.767 104.801 126.675 104.158 126.675 103.432V99.4515C126.675 98.6893 126.767 98.0281 126.95 97.4679C127.134 96.9078 127.456 96.4762 127.915 96.1731C128.383 95.8701 129.026 95.7185 129.843 95.7185C130.615 95.7185 131.216 95.8517 131.648 96.118C132.088 96.3751 132.401 96.7471 132.584 97.2338C132.768 97.7205 132.86 98.2852 132.86 98.928V99.8647H130.904V98.9005C130.904 98.5883 130.885 98.3036 130.849 98.0465C130.821 97.7893 130.734 97.5873 130.587 97.4404C130.449 97.2843 130.206 97.2062 129.857 97.2062C129.508 97.2062 129.251 97.2889 129.086 97.4542C128.929 97.6103 128.828 97.8261 128.782 98.1016C128.737 98.3679 128.714 98.6709 128.714 99.0107V103.859C128.714 104.263 128.746 104.599 128.81 104.865C128.874 105.122 128.989 105.319 129.154 105.457C129.329 105.586 129.563 105.65 129.857 105.65C130.197 105.65 130.435 105.572 130.573 105.416C130.72 105.251 130.812 105.035 130.849 104.769C130.885 104.502 130.904 104.204 130.904 103.873V102.868H132.86V103.763C132.86 104.424 132.773 105.012 132.598 105.526C132.424 106.031 132.116 106.431 131.675 106.725C131.244 107.009 130.633 107.152 129.843 107.152ZM133.714 107L135.946 95.8425H138.122L140.354 107H138.467L138.026 104.424H136.084L135.629 107H133.714ZM136.29 103.129H137.805L137.048 98.4459L136.29 103.129ZM141.476 107V95.8425H146.063V97.2475H143.514V100.498H145.594V101.917H143.514V107H141.476ZM147.166 107V95.8425H151.849V97.2751H149.205V100.485H151.285V101.903H149.205V105.595H151.877V107H147.166ZM148.984 95.0711L149.824 92.3162H151.712L150.072 95.0711H148.984ZM156.407 107V95.8425H159.038C159.947 95.8425 160.655 95.9665 161.16 96.2144C161.674 96.4624 162.037 96.8435 162.248 97.3577C162.468 97.872 162.578 98.524 162.578 99.3137V103.391C162.578 104.199 162.468 104.874 162.248 105.416C162.037 105.949 161.678 106.348 161.173 106.614C160.678 106.871 159.993 107 159.121 107H156.407ZM158.446 105.581H159.066C159.534 105.581 159.869 105.499 160.071 105.333C160.273 105.168 160.397 104.929 160.443 104.617C160.489 104.296 160.512 103.905 160.512 103.446V99.176C160.512 98.726 160.48 98.3633 160.416 98.0878C160.352 97.8123 160.218 97.6103 160.016 97.4817C159.814 97.3531 159.488 97.2889 159.038 97.2889H158.446V105.581ZM164.075 107V95.8425H168.758V97.2751H166.114V100.485H168.194V101.903H166.114V105.595H168.786V107H164.075ZM173.316 107V95.8425H178V97.2751H175.355V100.485H177.435V101.903H175.355V105.595H178.027V107H173.316ZM182.018 107.152C181.348 107.152 180.788 107.023 180.338 106.766C179.888 106.5 179.548 106.114 179.318 105.609C179.089 105.104 178.96 104.484 178.933 103.749L180.682 103.405C180.7 103.836 180.751 104.218 180.834 104.548C180.925 104.879 181.059 105.136 181.233 105.319C181.417 105.494 181.655 105.581 181.949 105.581C182.28 105.581 182.514 105.485 182.652 105.292C182.79 105.09 182.858 104.837 182.858 104.534C182.858 104.048 182.748 103.648 182.528 103.336C182.307 103.024 182.014 102.711 181.646 102.399L180.241 101.16C179.846 100.82 179.53 100.443 179.291 100.03C179.061 99.6076 178.946 99.0887 178.946 98.4735C178.946 97.5919 179.204 96.9124 179.718 96.4348C180.232 95.9573 180.935 95.7185 181.825 95.7185C182.349 95.7185 182.785 95.8012 183.134 95.9665C183.483 96.1226 183.758 96.343 183.96 96.6277C184.172 96.9124 184.328 97.2384 184.429 97.6057C184.53 97.9638 184.594 98.3449 184.622 98.749L182.886 99.052C182.868 98.7031 182.826 98.3908 182.762 98.1153C182.707 97.8398 182.601 97.624 182.445 97.4679C182.298 97.3118 182.078 97.2338 181.784 97.2338C181.481 97.2338 181.247 97.3348 181.082 97.5368C180.925 97.7296 180.847 97.973 180.847 98.2669C180.847 98.6434 180.925 98.9556 181.082 99.2035C181.238 99.4423 181.463 99.6902 181.757 99.9474L183.148 101.173C183.607 101.559 183.997 102.014 184.319 102.537C184.649 103.051 184.814 103.676 184.814 104.41C184.814 104.943 184.695 105.416 184.456 105.829C184.227 106.242 183.901 106.568 183.478 106.807C183.065 107.037 182.578 107.152 182.018 107.152ZM186.015 107V95.8425H189.293C189.964 95.8425 190.505 95.9665 190.919 96.2144C191.341 96.4624 191.649 96.8251 191.842 97.3026C192.044 97.771 192.145 98.3403 192.145 99.0107C192.145 99.7362 192.021 100.324 191.773 100.774C191.525 101.215 191.176 101.536 190.726 101.738C190.285 101.94 189.762 102.041 189.155 102.041H188.053V107H186.015ZM188.053 100.609H188.825C189.192 100.609 189.477 100.558 189.679 100.457C189.89 100.347 190.032 100.177 190.106 99.9474C190.189 99.7086 190.23 99.3918 190.23 98.9969C190.23 98.5929 190.198 98.2669 190.133 98.0189C190.078 97.7618 189.95 97.5735 189.748 97.4542C189.555 97.3348 189.247 97.2751 188.825 97.2751H188.053V100.609ZM193.279 107V95.8425H197.962V97.2751H195.317V100.485H197.397V101.903H195.317V105.595H197.99V107H193.279ZM202.174 107.152C201.356 107.152 200.713 106.991 200.245 106.669C199.786 106.348 199.465 105.912 199.281 105.361C199.097 104.801 199.005 104.158 199.005 103.432V99.4515C199.005 98.6893 199.097 98.0281 199.281 97.4679C199.465 96.9078 199.786 96.4762 200.245 96.1731C200.713 95.8701 201.356 95.7185 202.174 95.7185C202.945 95.7185 203.546 95.8517 203.978 96.118C204.419 96.3751 204.731 96.7471 204.915 97.2338C205.098 97.7205 205.19 98.2852 205.19 98.928V99.8647H203.234V98.9005C203.234 98.5883 203.216 98.3036 203.179 98.0465C203.152 97.7893 203.064 97.5873 202.917 97.4404C202.78 97.2843 202.536 97.2062 202.187 97.2062C201.838 97.2062 201.581 97.2889 201.416 97.4542C201.26 97.6103 201.159 97.8261 201.113 98.1016C201.067 98.3679 201.044 98.6709 201.044 99.0107V103.859C201.044 104.263 201.076 104.599 201.14 104.865C201.205 105.122 201.32 105.319 201.485 105.457C201.659 105.586 201.893 105.65 202.187 105.65C202.527 105.65 202.766 105.572 202.904 105.416C203.051 105.251 203.142 105.035 203.179 104.769C203.216 104.502 203.234 104.204 203.234 103.873V102.868H205.19V103.763C205.19 104.424 205.103 105.012 204.929 105.526C204.754 106.031 204.446 106.431 204.006 106.725C203.574 107.009 202.963 107.152 202.174 107.152ZM206.665 107V95.8425H208.676V107H206.665ZM209.838 107L212.07 95.8425H214.246L216.478 107H214.59L214.15 104.424H212.207L211.753 107H209.838ZM212.414 103.129H213.929L213.172 98.4459L212.414 103.129ZM217.6 107V95.8425H219.638V105.595H222.338V107H217.6ZM223.453 107V95.8425H225.464V107H223.453ZM227.191 107V95.8425H229.822C230.731 95.8425 231.438 95.9665 231.943 96.2144C232.457 96.4624 232.82 96.8435 233.031 97.3577C233.252 97.872 233.362 98.524 233.362 99.3137V103.391C233.362 104.199 233.252 104.874 233.031 105.416C232.82 105.949 232.462 106.348 231.957 106.614C231.461 106.871 230.777 107 229.904 107H227.191ZM229.229 105.581H229.849C230.318 105.581 230.653 105.499 230.855 105.333C231.057 105.168 231.181 104.929 231.227 104.617C231.273 104.296 231.296 103.905 231.296 103.446V99.176C231.296 98.726 231.264 98.3633 231.199 98.0878C231.135 97.8123 231.002 97.6103 230.8 97.4817C230.598 97.3531 230.272 97.2889 229.822 97.2889H229.229V105.581ZM234.213 107L236.444 95.8425H238.621L240.852 107H238.965L238.524 104.424H236.582L236.128 107H234.213ZM236.789 103.129H238.304L237.546 98.4459L236.789 103.129ZM241.974 107V95.8425H244.605C245.514 95.8425 246.222 95.9665 246.727 96.2144C247.241 96.4624 247.604 96.8435 247.815 97.3577C248.035 97.872 248.145 98.524 248.145 99.3137V103.391C248.145 104.199 248.035 104.874 247.815 105.416C247.604 105.949 247.246 106.348 246.74 106.614C246.245 106.871 245.56 107 244.688 107H241.974ZM244.013 105.581H244.633C245.101 105.581 245.436 105.499 245.638 105.333C245.84 105.168 245.964 104.929 246.01 104.617C246.056 104.296 246.079 103.905 246.079 103.446V99.176C246.079 98.726 246.047 98.3633 245.983 98.0878C245.919 97.8123 245.785 97.6103 245.583 97.4817C245.381 97.3531 245.055 97.2889 244.605 97.2889H244.013V105.581Z" fill="#C1B6A2"/>
</svg>
