<svg width="85" height="85" viewBox="0 0 85 85" fill="none" xmlns="http://www.w3.org/2000/svg">
<circle cx="42.5" cy="42.5" r="40.5" fill="white"/>
<path fill-rule="evenodd" clip-rule="evenodd" d="M42.5 85C65.9721 85 85 65.9721 85 42.5C85 19.0279 65.9721 0 42.5 0C19.0279 0 0 19.0279 0 42.5C0 65.9721 19.0279 85 42.5 85ZM45.125 34.1875H54.5L51.375 42H45.125V67H35.75V42H29.5V34.1875H35.75V26.375C35.75 21.1969 39.9469 17 45.125 17H51.375V24.8125H48.25C46.525 24.8125 45.125 26.2125 45.125 27.9375V34.1875Z" fill="#2E50A6"/>
</svg>
