<svg width="229" height="228" viewBox="0 0 229 228" fill="none" xmlns="http://www.w3.org/2000/svg">
<path d="M107.128 4.51196C107.128 6.72096 105.337 8.51196 103.128 8.51196C100.919 8.51196 99.1279 6.72096 99.1279 4.51196C99.1279 2.30296 100.919 0.511963 103.128 0.511963C105.337 0.511963 107.128 2.30296 107.128 4.51196Z" fill="#60A62E"/>
<path d="M130.128 4.51196C130.128 6.72096 128.337 8.51196 126.128 8.51196C123.919 8.51196 122.128 6.72096 122.128 4.51196C122.128 2.30296 123.919 0.511963 126.128 0.511963C128.337 0.511963 130.128 2.30296 130.128 4.51196Z" fill="#60A62E"/>
<path d="M150.128 8.51196C150.128 10.721 148.337 12.512 146.128 12.512C143.919 12.512 142.128 10.721 142.128 8.51196C142.128 6.30296 143.919 4.51196 146.128 4.51196C148.337 4.51196 150.128 6.30296 150.128 8.51196Z" fill="#60A62E"/>
<path d="M173.128 16.512C173.128 18.721 171.337 20.512 169.128 20.512C166.919 20.512 165.128 18.721 165.128 16.512C165.128 14.303 166.919 12.512 169.128 12.512C171.337 12.512 173.128 14.303 173.128 16.512Z" fill="#60A62E"/>
<path d="M191.128 30.512C191.128 32.721 189.337 34.512 187.128 34.512C184.919 34.512 183.128 32.721 183.128 30.512C183.128 28.303 184.919 26.512 187.128 26.512C189.337 26.512 191.128 28.303 191.128 30.512Z" fill="#60A62E"/>
<path d="M208.128 49.512C208.128 51.721 206.337 53.512 204.128 53.512C201.919 53.512 200.128 51.721 200.128 49.512C200.128 47.303 201.919 45.512 204.128 45.512C206.337 45.512 208.128 47.303 208.128 49.512Z" fill="#60A62E"/>
<path d="M219.128 68.512C219.128 70.721 217.337 72.512 215.128 72.512C212.919 72.512 211.128 70.721 211.128 68.512C211.128 66.303 212.919 64.512 215.128 64.512C217.337 64.512 219.128 66.303 219.128 68.512Z" fill="#60A62E"/>
<path d="M226.128 91.512C226.128 93.721 224.337 95.512 222.128 95.512C219.919 95.512 218.128 93.721 218.128 91.512C218.128 89.303 219.919 87.512 222.128 87.512C224.337 87.512 226.128 89.303 226.128 91.512Z" fill="#60A62E"/>
<path d="M228.128 114.512C228.128 116.721 226.337 118.512 224.128 118.512C221.919 118.512 220.128 116.721 220.128 114.512C220.128 112.303 221.919 110.512 224.128 110.512C226.337 110.512 228.128 112.303 228.128 114.512Z" fill="#60A62E"/>
<path d="M226.128 137.512C226.128 139.721 224.337 141.512 222.128 141.512C219.919 141.512 218.128 139.721 218.128 137.512C218.128 135.303 219.919 133.512 222.128 133.512C224.337 133.512 226.128 135.303 226.128 137.512Z" fill="#60A62E"/>
<path d="M219.128 159.512C219.128 161.721 217.337 163.512 215.128 163.512C212.919 163.512 211.128 161.721 211.128 159.512C211.128 157.303 212.919 155.512 215.128 155.512C217.337 155.512 219.128 157.303 219.128 159.512Z" fill="#60A62E"/>
<path d="M208.128 180.512C208.128 182.721 206.337 184.512 204.128 184.512C201.919 184.512 200.128 182.721 200.128 180.512C200.128 178.303 201.919 176.512 204.128 176.512C206.337 176.512 208.128 178.303 208.128 180.512Z" fill="#60A62E"/>
<path d="M191.128 197.512C191.128 199.721 189.337 201.512 187.128 201.512C184.919 201.512 183.128 199.721 183.128 197.512C183.128 195.303 184.919 193.512 187.128 193.512C189.337 193.512 191.128 195.303 191.128 197.512Z" fill="#60A62E"/>
<path d="M173.128 210.512C173.128 212.721 171.337 214.512 169.128 214.512C166.919 214.512 165.128 212.721 165.128 210.512C165.128 208.303 166.919 206.512 169.128 206.512C171.337 206.512 173.128 208.303 173.128 210.512Z" fill="#60A62E"/>
<path d="M154.128 218.512C154.128 220.721 152.337 222.512 150.128 222.512C147.919 222.512 146.128 220.721 146.128 218.512C146.128 216.303 147.919 214.512 150.128 214.512C152.337 214.512 154.128 216.303 154.128 218.512Z" fill="#60A62E"/>
<path d="M134.128 223.512C134.128 225.721 132.337 227.512 130.128 227.512C127.919 227.512 126.128 225.721 126.128 223.512C126.128 221.303 127.919 219.512 130.128 219.512C132.337 219.512 134.128 221.303 134.128 223.512Z" fill="#60A62E"/>
<path d="M111.128 223.512C111.128 225.721 109.337 227.512 107.128 227.512C104.919 227.512 103.128 225.721 103.128 223.512C103.128 221.303 104.919 219.512 107.128 219.512C109.337 219.512 111.128 221.303 111.128 223.512Z" fill="#60A62E"/>
<path d="M88.1279 219.512C88.1279 221.721 86.3369 223.512 84.1279 223.512C81.9189 223.512 80.1279 221.721 80.1279 219.512C80.1279 217.303 81.9189 215.512 84.1279 215.512C86.3369 215.512 88.1279 217.303 88.1279 219.512Z" fill="#60A62E"/>
<path d="M66.1279 210.512C66.1279 212.721 64.3369 214.512 62.1279 214.512C59.9189 214.512 58.1279 212.721 58.1279 210.512C58.1279 208.303 59.9189 206.512 62.1279 206.512C64.3369 206.512 66.1279 208.303 66.1279 210.512Z" fill="#60A62E"/>
<path d="M44.1279 197.512C44.1279 199.721 42.3369 201.512 40.1279 201.512C37.9189 201.512 36.1279 199.721 36.1279 197.512C36.1279 195.303 37.9189 193.512 40.1279 193.512C42.3369 193.512 44.1279 195.303 44.1279 197.512Z" fill="#60A62E"/>
<path d="M29.1279 180.512C29.1279 182.721 27.3369 184.512 25.1279 184.512C22.9189 184.512 21.1279 182.721 21.1279 180.512C21.1279 178.303 22.9189 176.512 25.1279 176.512C27.3369 176.512 29.1279 178.303 29.1279 180.512Z" fill="#60A62E"/>
<path d="M17.1279 159.512C17.1279 161.721 15.3369 163.512 13.1279 163.512C10.9189 163.512 9.12793 161.721 9.12793 159.512C9.12793 157.303 10.9189 155.512 13.1279 155.512C15.3369 155.512 17.1279 157.303 17.1279 159.512Z" fill="#60A62E"/>
<path d="M11.1279 137.512C11.1279 139.721 9.33693 141.512 7.12793 141.512C4.91893 141.512 3.12793 139.721 3.12793 137.512C3.12793 135.303 4.91893 133.512 7.12793 133.512C9.33693 133.512 11.1279 135.303 11.1279 137.512Z" fill="#60A62E"/>
<path d="M8.12793 117.512C8.12793 119.721 6.33693 121.512 4.12793 121.512C1.91893 121.512 0.12793 119.721 0.12793 117.512C0.12793 115.303 1.91893 113.512 4.12793 113.512C6.33693 113.512 8.12793 115.303 8.12793 117.512Z" fill="#60A62E"/>
<path d="M9.12793 95.512C9.12793 97.721 7.33693 99.512 5.12793 99.512C2.91893 99.512 1.12793 97.721 1.12793 95.512C1.12793 93.303 2.91893 91.512 5.12793 91.512C7.33693 91.512 9.12793 93.303 9.12793 95.512Z" fill="#60A62E"/>
<path d="M17.1279 72.512C17.1279 74.721 15.3369 76.512 13.1279 76.512C10.9189 76.512 9.12793 74.721 9.12793 72.512C9.12793 70.303 10.9189 68.512 13.1279 68.512C15.3369 68.512 17.1279 70.303 17.1279 72.512Z" fill="#60A62E"/>
<path d="M29.1279 49.512C29.1279 51.721 27.3369 53.512 25.1279 53.512C22.9189 53.512 21.1279 51.721 21.1279 49.512C21.1279 47.303 22.9189 45.512 25.1279 45.512C27.3369 45.512 29.1279 47.303 29.1279 49.512Z" fill="#60A62E"/>
<path d="M44.1279 30.512C44.1279 32.721 42.3369 34.512 40.1279 34.512C37.9189 34.512 36.1279 32.721 36.1279 30.512C36.1279 28.303 37.9189 26.512 40.1279 26.512C42.3369 26.512 44.1279 28.303 44.1279 30.512Z" fill="#60A62E"/>
<path d="M62.1279 16.512C62.1279 18.721 60.3369 20.512 58.1279 20.512C55.9189 20.512 54.1279 18.721 54.1279 16.512C54.1279 14.303 55.9189 12.512 58.1279 12.512C60.3369 12.512 62.1279 14.303 62.1279 16.512Z" fill="#60A62E"/>
<path d="M84.1279 8.51196C84.1279 10.721 82.3369 12.512 80.1279 12.512C77.9189 12.512 76.1279 10.721 76.1279 8.51196C76.1279 6.30296 77.9189 4.51196 80.1279 4.51196C82.3369 4.51196 84.1279 6.30296 84.1279 8.51196Z" fill="#60A62E"/>
<path d="M136.128 117.512C136.128 129.11 126.726 138.512 115.128 138.512C103.53 138.512 94.1279 129.11 94.1279 117.512C94.1279 105.914 103.53 96.512 115.128 96.512C126.726 96.512 136.128 105.914 136.128 117.512Z" fill="#60A62E"/>
<path d="M121.888 67.913C121.888 71.449 118.977 74.315 115.388 74.315C111.798 74.315 108.888 71.449 108.888 67.913C108.888 64.378 111.798 61.512 115.388 61.512C118.977 61.512 121.888 64.378 121.888 67.913Z" fill="#60A62E"/>
<path d="M165.013 92.289C165.013 95.825 162.102 98.691 158.513 98.691C154.923 98.691 152.013 95.825 152.013 92.289C152.013 88.753 154.923 85.887 158.513 85.887C162.102 85.887 165.013 88.753 165.013 92.289Z" fill="#60A62E"/>
<path d="M97.561 74.561C97.561 78.097 94.65 80.963 91.061 80.963C87.471 80.963 84.561 78.097 84.561 74.561C84.561 71.026 87.471 68.16 91.061 68.16C94.65 68.16 97.561 71.026 97.561 74.561Z" fill="#60A62E"/>
<path d="M79.8679 92.289C79.8679 95.825 76.9579 98.691 73.3679 98.691C69.7779 98.691 66.8679 95.825 66.8679 92.289C66.8679 88.753 69.7779 85.887 73.3679 85.887C76.9579 85.887 79.8679 88.753 79.8679 92.289Z" fill="#60A62E"/>
<path d="M165.013 141.04C165.013 144.576 162.102 147.442 158.513 147.442C154.923 147.442 152.013 144.576 152.013 141.04C152.013 137.505 154.923 134.639 158.513 134.639C162.102 134.639 165.013 137.505 165.013 141.04Z" fill="#60A62E"/>
<path d="M172.753 116.665C172.753 120.2 169.843 123.066 166.253 123.066C162.663 123.066 159.753 120.2 159.753 116.665C159.753 113.129 162.663 110.263 166.253 110.263C169.843 110.263 172.753 113.129 172.753 116.665Z" fill="#60A62E"/>
<path d="M72.1279 116.665C72.1279 120.2 69.2179 123.066 65.6279 123.066C62.0379 123.066 59.1279 120.2 59.1279 116.665C59.1279 113.129 62.0379 110.263 65.6279 110.263C69.2179 110.263 72.1279 113.129 72.1279 116.665Z" fill="#60A62E"/>
<path d="M79.8679 141.04C79.8679 144.576 76.9579 147.442 73.3679 147.442C69.7779 147.442 66.8679 144.576 66.8679 141.04C66.8679 137.505 69.7779 134.639 73.3679 134.639C76.9579 134.639 79.8679 137.505 79.8679 141.04Z" fill="#60A62E"/>
<path d="M146.214 74.561C146.214 78.097 143.304 80.963 139.714 80.963C136.125 80.963 133.214 78.097 133.214 74.561C133.214 71.026 136.125 68.16 139.714 68.16C143.304 68.16 146.214 71.026 146.214 74.561Z" fill="#60A62E"/>
<path d="M121.888 168.74C121.888 172.276 118.977 175.142 115.388 175.142C111.798 175.142 108.888 172.276 108.888 168.74C108.888 165.204 111.798 162.338 115.388 162.338C118.977 162.338 121.888 165.204 121.888 168.74Z" fill="#60A62E"/>
<path d="M97.561 160.984C97.561 164.52 94.65 167.386 91.061 167.386C87.471 167.386 84.561 164.52 84.561 160.984C84.561 157.449 87.471 154.582 91.061 154.582C94.65 154.582 97.561 157.449 97.561 160.984Z" fill="#60A62E"/>
<path d="M146.214 160.984C146.214 164.52 143.304 167.386 139.714 167.386C136.125 167.386 133.214 164.52 133.214 160.984C133.214 157.449 136.125 154.582 139.714 154.582C143.304 154.582 146.214 157.449 146.214 160.984Z" fill="#60A62E"/>
<path d="M121.128 39.512C121.128 42.273 118.889 44.512 116.128 44.512C113.367 44.512 111.128 42.273 111.128 39.512C111.128 36.75 113.367 34.512 116.128 34.512C118.889 34.512 121.128 36.75 121.128 39.512Z" fill="#60A62E"/>
<path d="M200.128 117.512C200.128 120.273 197.889 122.512 195.128 122.512C192.367 122.512 190.128 120.273 190.128 117.512C190.128 114.75 192.367 112.512 195.128 112.512C197.889 112.512 200.128 114.75 200.128 117.512Z" fill="#60A62E"/>
<path d="M158.128 49.512C158.128 52.273 155.889 54.512 153.128 54.512C150.367 54.512 148.128 52.273 148.128 49.512C148.128 46.75 150.367 44.512 153.128 44.512C155.889 44.512 158.128 46.75 158.128 49.512Z" fill="#60A62E"/>
<path d="M188.128 78.512C188.128 81.273 185.889 83.512 183.128 83.512C180.367 83.512 178.128 81.273 178.128 78.512C178.128 75.75 180.367 73.512 183.128 73.512C185.889 73.512 188.128 75.75 188.128 78.512Z" fill="#60A62E"/>
<path d="M79.1279 49.512C79.1279 52.273 76.8889 54.512 74.1279 54.512C71.3669 54.512 69.1279 52.273 69.1279 49.512C69.1279 46.75 71.3669 44.512 74.1279 44.512C76.8889 44.512 79.1279 46.75 79.1279 49.512Z" fill="#60A62E"/>
<path d="M52.1279 78.512C52.1279 81.273 49.8889 83.512 47.1279 83.512C44.3669 83.512 42.1279 81.273 42.1279 78.512C42.1279 75.75 44.3669 73.512 47.1279 73.512C49.8889 73.512 52.1279 75.75 52.1279 78.512Z" fill="#60A62E"/>
<path d="M52.1279 158.512C52.1279 161.273 49.8889 163.512 47.1279 163.512C44.3669 163.512 42.1279 161.273 42.1279 158.512C42.1279 155.75 44.3669 153.512 47.1279 153.512C49.8889 153.512 52.1279 155.75 52.1279 158.512Z" fill="#60A62E"/>
<path d="M79.1279 187.512C79.1279 190.273 76.8889 192.512 74.1279 192.512C71.3669 192.512 69.1279 190.273 69.1279 187.512C69.1279 184.75 71.3669 182.512 74.1279 182.512C76.8889 182.512 79.1279 184.75 79.1279 187.512Z" fill="#60A62E"/>
<path d="M158.128 187.512C158.128 190.273 155.889 192.512 153.128 192.512C150.367 192.512 148.128 190.273 148.128 187.512C148.128 184.75 150.367 182.512 153.128 182.512C155.889 182.512 158.128 184.75 158.128 187.512Z" fill="#60A62E"/>
<path d="M188.128 158.512C188.128 161.273 185.889 163.512 183.128 163.512C180.367 163.512 178.128 161.273 178.128 158.512C178.128 155.75 180.367 153.512 183.128 153.512C185.889 153.512 188.128 155.75 188.128 158.512Z" fill="#60A62E"/>
<path d="M42.1279 116.512C42.1279 119.273 39.8889 121.512 37.1279 121.512C34.3669 121.512 32.1279 119.273 32.1279 116.512C32.1279 113.75 34.3669 111.512 37.1279 111.512C39.8889 111.512 42.1279 113.75 42.1279 116.512Z" fill="#60A62E"/>
<path d="M121.128 197.512C121.128 200.273 118.889 202.512 116.128 202.512C113.367 202.512 111.128 200.273 111.128 197.512C111.128 194.75 113.367 192.512 116.128 192.512C118.889 192.512 121.128 194.75 121.128 197.512Z" fill="#60A62E"/>
</svg>
