<svg width="1395" height="262" viewBox="0 0 1395 262" fill="none" xmlns="http://www.w3.org/2000/svg">
<path fill-rule="evenodd" clip-rule="evenodd" d="M0 255.645H188.616V224.2H33.4008V139.74L173.881 138.708L175.028 108.246H33.4008V31.6436L185.669 30.6157L186.816 0.15332H0V255.645ZM927.363 255.645H960.764V153.028C960.764 66.7874 961.186 50.8684 963.414 53.2877C964.874 54.8697 985.871 87.5058 1010.08 125.814C1034.28 164.12 1062.55 208.782 1072.89 225.062L1091.68 254.662H1130.71V1.13598H1097.31L1096.3 205.283L1040.13 115.003C1009.24 65.3468 980.409 19.1933 976.063 12.4365L968.161 0.15332H927.363V255.645ZM1188.67 255.645H1222.08V165.562L1242.15 146.739C1257.88 131.991 1262.72 128.445 1264.52 130.363C1265.78 131.71 1279.43 150.942 1294.85 173.101C1310.28 195.26 1329.6 222.897 1337.8 234.517L1352.7 255.645H1373.84C1385.46 255.645 1394.97 254.833 1394.97 253.839C1394.97 252.846 1376.26 226.092 1353.4 194.388C1295.65 114.33 1288.88 104.767 1288.88 103.291C1288.88 102.58 1304.13 87.2818 1322.77 69.2971C1341.41 51.3125 1365.06 28.4087 1375.33 18.4013L1393.99 0.20442L1346.84 0.247663L1223.06 122.036L1222.02 0.15332H1188.67V255.645ZM290.783 65.0776C256.06 72.3493 232.126 99.905 224.994 140.825C221.296 162.025 221.282 174.221 224.931 191.448C235.177 239.822 274.407 267.92 320.097 259.611C351.62 253.876 371.21 235.003 379.802 202.094C381.394 195.999 382.203 190.52 381.602 189.919C380.999 189.317 374.024 188.824 366.098 188.824C355.883 188.824 351.691 189.539 351.689 191.28C351.685 197.56 339.757 218.138 332.782 223.901C313.671 239.69 283.276 235.543 269.375 215.251C250.408 187.562 253.082 127.327 274.246 105.53C283.537 95.9586 292.563 92.5154 308.215 92.5665C331.059 92.6412 343.615 101.957 349.881 123.477L352.313 131.83H366.411C374.163 131.83 381.005 131.332 381.614 130.723C382.223 130.114 381.462 124.22 379.924 117.626C372.049 83.8621 349.852 65.3016 315.649 63.8885C306.835 63.523 295.646 64.0596 290.783 65.0776ZM469.782 66.021C445.415 72.8799 428.473 87.1973 417.254 110.408C408.806 127.885 405.894 141.53 405.975 163.275C406.087 193.613 416.213 219.864 434.898 238.263C465.801 268.692 519.993 268.362 550.785 237.558C597.442 190.882 584.922 97.0474 528.567 71.0639C511.671 63.2734 487.044 61.1607 469.782 66.021ZM516.048 96.1021C533.974 105.259 543.967 125.275 545.655 155.413C547.881 195.191 533.467 223.724 507.303 231.334C468.519 242.611 438.02 211.346 438.169 160.456C438.205 148.042 442.773 128.251 447.938 118.122C453.3 107.609 464.406 97.2537 474.199 93.6376C485.353 89.5182 505.48 90.7034 516.048 96.1021Z" fill="black"/>
<path fill-rule="evenodd" clip-rule="evenodd" d="M623.809 254.662H786.883V225.182L658.225 224.146L657.21 1.13596L622.797 0L623.809 254.662Z" fill="#60A62E"/>
<path fill-rule="evenodd" clip-rule="evenodd" d="M830.108 254.662H863.508L864.52 0.15332H829.096L830.108 254.662Z" fill="#E30661"/>
</svg>
