<svg width="229" height="228" viewBox="0 0 229 228" fill="none" xmlns="http://www.w3.org/2000/svg">
<path fill-rule="evenodd" clip-rule="evenodd" d="M162.12 49.6289C160.85 52.1269 150.26 63.4569 138.59 74.8059C118.51 94.3299 117.14 96.17 113.25 108.915C108.31 125.107 108 141.415 112.37 154.543C117.09 168.735 118.33 169.765 129.09 168.489C149.53 166.068 170 151.645 177.09 134.658C183.67 118.92 184.26 109.687 180.16 87.2609C175.92 64.0899 170.41 47.0839 166.74 45.8609C165.47 45.4369 163.39 47.1309 162.12 49.6289ZM31.303 126.663C34.006 137.441 40.502 152.82 46.734 163.203C58.25 182.388 81.1301 189.915 100.79 180.987C109.89 176.854 110.47 175.083 106.76 162.491C105.21 157.22 100.59 150.595 93.5 143.473C81.98 131.907 78.4 130.411 52.164 126.2C45.141 125.073 37.2741 123.523 34.6841 122.756C30.3501 121.475 30.079 121.787 31.303 126.663Z" fill="#60A62E"/>
<path d="M107.13 4.51196C107.13 6.72096 105.34 8.51196 103.13 8.51196C100.92 8.51196 99.1299 6.72096 99.1299 4.51196C99.1299 2.30296 100.92 0.511963 103.13 0.511963C105.34 0.511963 107.13 2.30296 107.13 4.51196Z" fill="#60A62E"/>
<path d="M130.13 4.51196C130.13 6.72096 128.34 8.51196 126.13 8.51196C123.92 8.51196 122.13 6.72096 122.13 4.51196C122.13 2.30296 123.92 0.511963 126.13 0.511963C128.34 0.511963 130.13 2.30296 130.13 4.51196Z" fill="#60A62E"/>
<path d="M150.13 8.51196C150.13 10.721 148.34 12.512 146.13 12.512C143.92 12.512 142.13 10.721 142.13 8.51196C142.13 6.30296 143.92 4.51196 146.13 4.51196C148.34 4.51196 150.13 6.30296 150.13 8.51196Z" fill="#60A62E"/>
<path d="M173.13 16.512C173.13 18.721 171.34 20.512 169.13 20.512C166.92 20.512 165.13 18.721 165.13 16.512C165.13 14.303 166.92 12.512 169.13 12.512C171.34 12.512 173.13 14.303 173.13 16.512Z" fill="#60A62E"/>
<path d="M191.13 30.512C191.13 32.721 189.34 34.512 187.13 34.512C184.92 34.512 183.13 32.721 183.13 30.512C183.13 28.303 184.92 26.512 187.13 26.512C189.34 26.512 191.13 28.303 191.13 30.512Z" fill="#60A62E"/>
<path d="M208.13 49.512C208.13 51.721 206.34 53.512 204.13 53.512C201.92 53.512 200.13 51.721 200.13 49.512C200.13 47.303 201.92 45.512 204.13 45.512C206.34 45.512 208.13 47.303 208.13 49.512Z" fill="#60A62E"/>
<path d="M219.13 68.512C219.13 70.721 217.34 72.512 215.13 72.512C212.92 72.512 211.13 70.721 211.13 68.512C211.13 66.303 212.92 64.512 215.13 64.512C217.34 64.512 219.13 66.303 219.13 68.512Z" fill="#60A62E"/>
<path d="M226.13 91.512C226.13 93.721 224.34 95.512 222.13 95.512C219.92 95.512 218.13 93.721 218.13 91.512C218.13 89.303 219.92 87.512 222.13 87.512C224.34 87.512 226.13 89.303 226.13 91.512Z" fill="#60A62E"/>
<path d="M228.13 114.512C228.13 116.721 226.34 118.512 224.13 118.512C221.92 118.512 220.13 116.721 220.13 114.512C220.13 112.303 221.92 110.512 224.13 110.512C226.34 110.512 228.13 112.303 228.13 114.512Z" fill="#60A62E"/>
<path d="M226.13 137.512C226.13 139.721 224.34 141.512 222.13 141.512C219.92 141.512 218.13 139.721 218.13 137.512C218.13 135.303 219.92 133.512 222.13 133.512C224.34 133.512 226.13 135.303 226.13 137.512Z" fill="#60A62E"/>
<path d="M219.13 159.512C219.13 161.721 217.34 163.512 215.13 163.512C212.92 163.512 211.13 161.721 211.13 159.512C211.13 157.303 212.92 155.512 215.13 155.512C217.34 155.512 219.13 157.303 219.13 159.512Z" fill="#60A62E"/>
<path d="M208.13 180.512C208.13 182.721 206.34 184.512 204.13 184.512C201.92 184.512 200.13 182.721 200.13 180.512C200.13 178.303 201.92 176.512 204.13 176.512C206.34 176.512 208.13 178.303 208.13 180.512Z" fill="#60A62E"/>
<path d="M191.13 197.512C191.13 199.721 189.34 201.512 187.13 201.512C184.92 201.512 183.13 199.721 183.13 197.512C183.13 195.303 184.92 193.512 187.13 193.512C189.34 193.512 191.13 195.303 191.13 197.512Z" fill="#60A62E"/>
<path d="M173.13 210.512C173.13 212.721 171.34 214.512 169.13 214.512C166.92 214.512 165.13 212.721 165.13 210.512C165.13 208.303 166.92 206.512 169.13 206.512C171.34 206.512 173.13 208.303 173.13 210.512Z" fill="#60A62E"/>
<path d="M154.13 218.512C154.13 220.721 152.34 222.512 150.13 222.512C147.92 222.512 146.13 220.721 146.13 218.512C146.13 216.303 147.92 214.512 150.13 214.512C152.34 214.512 154.13 216.303 154.13 218.512Z" fill="#60A62E"/>
<path d="M134.13 223.512C134.13 225.721 132.34 227.512 130.13 227.512C127.92 227.512 126.13 225.721 126.13 223.512C126.13 221.303 127.92 219.512 130.13 219.512C132.34 219.512 134.13 221.303 134.13 223.512Z" fill="#60A62E"/>
<path d="M111.13 223.512C111.13 225.721 109.34 227.512 107.13 227.512C104.92 227.512 103.13 225.721 103.13 223.512C103.13 221.303 104.92 219.512 107.13 219.512C109.34 219.512 111.13 221.303 111.13 223.512Z" fill="#60A62E"/>
<path d="M88.1299 219.512C88.1299 221.721 86.3399 223.512 84.1299 223.512C81.9199 223.512 80.1299 221.721 80.1299 219.512C80.1299 217.303 81.9199 215.512 84.1299 215.512C86.3399 215.512 88.1299 217.303 88.1299 219.512Z" fill="#60A62E"/>
<path d="M66.1299 210.512C66.1299 212.721 64.3399 214.512 62.1299 214.512C59.9199 214.512 58.1299 212.721 58.1299 210.512C58.1299 208.303 59.9199 206.512 62.1299 206.512C64.3399 206.512 66.1299 208.303 66.1299 210.512Z" fill="#60A62E"/>
<path d="M44.1279 197.512C44.1279 199.721 42.3369 201.512 40.1279 201.512C37.9189 201.512 36.1279 199.721 36.1279 197.512C36.1279 195.303 37.9189 193.512 40.1279 193.512C42.3369 193.512 44.1279 195.303 44.1279 197.512Z" fill="#60A62E"/>
<path d="M29.1279 180.512C29.1279 182.721 27.3369 184.512 25.1279 184.512C22.9189 184.512 21.1279 182.721 21.1279 180.512C21.1279 178.303 22.9189 176.512 25.1279 176.512C27.3369 176.512 29.1279 178.303 29.1279 180.512Z" fill="#60A62E"/>
<path d="M17.1279 159.512C17.1279 161.721 15.3369 163.512 13.1279 163.512C10.9189 163.512 9.12793 161.721 9.12793 159.512C9.12793 157.303 10.9189 155.512 13.1279 155.512C15.3369 155.512 17.1279 157.303 17.1279 159.512Z" fill="#60A62E"/>
<path d="M11.1279 137.512C11.1279 139.721 9.33693 141.512 7.12793 141.512C4.91893 141.512 3.12793 139.721 3.12793 137.512C3.12793 135.303 4.91893 133.512 7.12793 133.512C9.33693 133.512 11.1279 135.303 11.1279 137.512Z" fill="#60A62E"/>
<path d="M8.12793 117.512C8.12793 119.721 6.33693 121.512 4.12793 121.512C1.91893 121.512 0.12793 119.721 0.12793 117.512C0.12793 115.303 1.91893 113.512 4.12793 113.512C6.33693 113.512 8.12793 115.303 8.12793 117.512Z" fill="#60A62E"/>
<path d="M9.12793 95.512C9.12793 97.721 7.33693 99.512 5.12793 99.512C2.91893 99.512 1.12793 97.721 1.12793 95.512C1.12793 93.303 2.91893 91.512 5.12793 91.512C7.33693 91.512 9.12793 93.303 9.12793 95.512Z" fill="#60A62E"/>
<path d="M17.1279 72.512C17.1279 74.721 15.3369 76.512 13.1279 76.512C10.9189 76.512 9.12793 74.721 9.12793 72.512C9.12793 70.303 10.9189 68.512 13.1279 68.512C15.3369 68.512 17.1279 70.303 17.1279 72.512Z" fill="#60A62E"/>
<path d="M29.1279 49.512C29.1279 51.721 27.3369 53.512 25.1279 53.512C22.9189 53.512 21.1279 51.721 21.1279 49.512C21.1279 47.303 22.9189 45.512 25.1279 45.512C27.3369 45.512 29.1279 47.303 29.1279 49.512Z" fill="#60A62E"/>
<path d="M44.1279 30.512C44.1279 32.721 42.3369 34.512 40.1279 34.512C37.9189 34.512 36.1279 32.721 36.1279 30.512C36.1279 28.303 37.9189 26.512 40.1279 26.512C42.3369 26.512 44.1279 28.303 44.1279 30.512Z" fill="#60A62E"/>
<path d="M62.1299 16.512C62.1299 18.721 60.3399 20.512 58.1299 20.512C55.9189 20.512 54.1279 18.721 54.1279 16.512C54.1279 14.303 55.9189 12.512 58.1299 12.512C60.3399 12.512 62.1299 14.303 62.1299 16.512Z" fill="#60A62E"/>
<path d="M84.1299 8.51196C84.1299 10.721 82.3399 12.512 80.1299 12.512C77.9199 12.512 76.1299 10.721 76.1299 8.51196C76.1299 6.30296 77.9199 4.51196 80.1299 4.51196C82.3399 4.51196 84.1299 6.30296 84.1299 8.51196Z" fill="#60A62E"/>
</svg>
