<svg width="114" height="102" viewBox="0 0 114 102" fill="none" xmlns="http://www.w3.org/2000/svg">
<path fill-rule="evenodd" clip-rule="evenodd" d="M42.0226 0.0776865C41.443 0.268968 41.2232 0.482682 39.6256 2.40836C39.296 2.80558 38.9556 3.20624 38.8693 3.29866C38.7829 3.39109 38.4452 3.80326 38.1189 4.21454C37.5323 4.95379 37.3514 5.16975 36.1799 6.53011C35.8503 6.91282 35.311 7.55307 34.9814 7.95268C34.6518 8.35244 34.3134 8.7516 34.2292 8.83984C34.1451 8.92808 33.808 9.33412 33.4801 9.74196C33.1523 10.1499 32.7829 10.5926 32.6593 10.7259C32.3989 11.0065 32.0704 11.4008 31.2358 12.434C30.9063 12.8419 30.5357 13.2846 30.4121 13.4179C30.2885 13.551 30.0525 13.8241 29.8877 14.0245C29.6268 14.3418 29.0359 15.059 27.9402 16.3884C27.7754 16.5883 27.3709 17.0645 27.0413 17.4466C26.7117 17.8286 26.1724 18.4654 25.8428 18.8616C25.5132 19.2577 25.1748 19.6573 25.0906 19.7498C25.0065 19.8422 24.6694 20.2544 24.3415 20.6656C24.0137 21.0769 23.6669 21.4807 23.571 21.563C23.1123 21.9566 22.6218 22.9147 22.6225 23.416C22.624 24.4187 23.1181 24.9269 26.6668 27.5751C28.5207 28.9585 30.2898 30.2581 30.5983 30.4629C30.9068 30.6678 31.1595 30.886 31.1601 30.9476C31.1607 31.0092 31.2623 31.0597 31.3859 31.0597C31.5095 31.0597 31.6106 31.1173 31.6106 31.1876C31.6106 31.2579 31.914 31.5069 32.2847 31.7408C32.6555 31.9749 32.9589 32.2201 32.9589 32.2859C32.9589 32.3519 33.0376 32.4057 33.1336 32.4057C33.2296 32.4057 33.4151 32.5074 33.5456 32.6317C34.0346 33.0971 38.2009 36.1446 38.3483 36.1446C38.4328 36.1446 38.502 36.2058 38.502 36.2804C38.502 36.3552 38.8052 36.6075 39.1759 36.8413C39.5465 37.075 39.8499 37.3167 39.85 37.3785C39.8502 37.4402 39.9457 37.4906 40.0626 37.4906C40.1793 37.4906 40.2972 37.5422 40.3248 37.6053C40.3522 37.6684 40.7207 37.9713 41.1438 38.2783C41.7822 38.7417 42.0371 38.8366 42.6434 38.8366C43.2057 38.8366 43.4599 38.7554 43.747 38.484C44.2009 38.0547 44.7941 37.3653 44.7941 37.2669C44.7941 37.2273 44.8927 37.0764 45.0132 36.9314C45.5895 36.2381 46.7417 34.621 46.7417 34.5052C46.7417 34.4336 46.8015 34.3525 46.8745 34.325C47.052 34.2583 48.09 32.8873 48.09 32.7195C48.09 32.6468 48.1912 32.5486 48.3148 32.5012C48.4384 32.4539 48.5395 32.3121 48.5395 32.186C48.5395 32.0601 48.59 31.9566 48.6518 31.956C48.7137 31.9554 48.9327 31.7031 49.1387 31.3952C49.3447 31.0873 49.5655 30.7681 49.6295 30.6859C49.6933 30.6036 50.5175 29.4931 51.4608 28.2182C52.4042 26.9432 53.2367 25.8277 53.311 25.7393C53.3853 25.6509 53.7061 25.2135 54.0238 24.7672C54.3417 24.3209 54.6703 23.8741 54.7542 23.7741C55.058 23.4118 55.2134 23.2005 55.473 22.7968C55.7623 22.3468 56.0301 22.2569 56.0301 22.6099C56.0301 22.7332 56.0976 22.8342 56.18 22.8342C56.2623 22.8342 56.3298 22.9099 56.3298 23.0021C56.3298 23.0946 56.6331 23.669 57.0039 24.2787C57.3747 24.8883 57.6781 25.426 57.6781 25.4734C57.6781 25.5207 58.0152 26.1165 58.4271 26.7974C58.8391 27.4783 59.1762 28.1102 59.1762 28.2016C59.1762 28.293 59.2288 28.3677 59.2932 28.3677C59.3575 28.3677 59.4878 28.5529 59.5828 28.779C59.759 29.199 60.6189 30.7611 61.1368 31.6017C61.4956 32.1844 61.5087 32.1723 59.3824 33.241C57.5124 34.181 56.929 34.7369 56.929 35.5786C56.929 36.1883 57.2498 36.8193 57.7489 37.1915C58.0734 37.4335 58.1292 37.4507 60.15 37.9351C60.8916 38.1128 61.9028 38.358 62.3972 38.4799C62.8916 38.602 63.7006 38.7949 64.195 38.9087C64.6893 39.0227 65.532 39.2258 66.0676 39.3601C66.6032 39.4944 67.4459 39.6975 67.9403 39.8114C68.4347 39.9252 69.2437 40.1192 69.738 40.2423C70.2324 40.3654 71.0584 40.5706 71.5733 40.6983C72.0883 40.826 72.8972 41.0279 73.371 41.147C74.1968 41.3545 74.7604 41.4927 77.0789 42.0563C78.7646 42.466 79.2802 42.4868 79.8594 42.1681C80.3534 41.8965 81.9116 39.8738 81.9363 39.4722C81.9426 39.3695 82.0086 39.2853 82.083 39.2853C82.1573 39.2853 82.2913 39.1001 82.3809 38.874C82.4705 38.6479 82.8818 37.958 83.2948 37.3411C83.7078 36.7242 84.0963 36.1164 84.1579 35.9904C84.4028 35.4899 85.7685 33.3747 85.8771 33.3281C85.9406 33.3005 85.9928 33.1876 85.9928 33.0769C85.9928 32.9663 86.0771 32.7844 86.18 32.6728C86.2831 32.5611 86.4684 32.2934 86.592 32.0776C86.8287 31.6645 88.431 29.0805 88.875 28.3957C89.0183 28.1747 89.182 27.8929 89.2386 27.7695C89.2953 27.6461 89.3804 27.5115 89.4275 27.4704C89.579 27.3385 90.1875 26.4388 90.1875 26.3468C90.1875 26.298 90.481 25.8074 90.8398 25.2565C91.7043 23.9292 91.8917 23.3434 91.6656 22.6758C91.2228 21.3687 89.7514 21.0249 88.1556 21.8555C87.9137 21.9816 87.6418 22.0849 87.5514 22.0855C87.4611 22.086 87.1914 22.1821 86.9522 22.2991C86.7129 22.4159 86.3835 22.5337 86.2202 22.5608C85.874 22.6179 85.7357 22.3671 84.2686 19.0205C84.1604 18.7738 83.8242 18.0335 83.5215 17.3754C83.2187 16.7174 82.8364 15.8761 82.6722 15.506C82.5078 15.1358 82.2439 14.5564 82.0856 14.2183C81.9274 13.8803 81.798 13.5271 81.798 13.4331C81.798 13.3394 81.7306 13.2626 81.6482 13.2626C81.5658 13.2626 81.4984 13.1894 81.4984 13.0999C81.4984 13.0103 81.2961 12.501 81.0489 11.9678C80.8018 11.4346 80.5995 10.958 80.5995 10.9085C80.5995 10.8591 80.4039 10.4094 80.1647 9.90946C79.7095 8.95709 78.7207 6.82069 78.4981 6.30832C78.4266 6.14381 78.1703 5.57176 77.9285 5.03709C77.6867 4.50243 77.346 3.74897 77.1715 3.36282C76.9969 2.97667 76.8542 2.58962 76.8542 2.50288C76.8542 2.41614 76.7974 2.3451 76.728 2.3451C76.6587 2.3451 76.5249 2.08831 76.4307 1.77439C76.3364 1.46048 76.0302 0.938976 75.7501 0.615338L75.2405 0.0269871L58.7815 0.00290882C49.7288 -0.0104016 42.1874 0.0232484 42.0226 0.0776865ZM73.2979 4.47626C73.5112 4.90818 73.8317 5.59793 74.01 6.00921C74.1883 6.42048 74.5211 7.16078 74.7497 7.65432C74.9784 8.14785 75.2684 8.7872 75.3941 9.07509C75.6441 9.64744 76.0864 10.6157 76.9153 12.406C77.2112 13.0452 77.4534 13.5965 77.4534 13.6308C77.4534 13.6652 77.7568 14.3372 78.1276 15.124C78.4984 15.911 78.8017 16.5865 78.8017 16.6252C78.8017 16.6641 79.0453 17.219 79.3432 17.8582C79.641 18.4975 80.0501 19.3907 80.2525 19.8431C80.4551 20.2955 80.7439 20.9348 80.8945 21.2639C81.7505 23.1339 81.9498 23.5761 82.2427 24.255C83.1113 26.2683 83.6902 27.0217 84.369 27.0217C84.6028 27.0217 84.7943 27.0855 84.7943 27.1632C84.7943 27.3209 83.7526 29.1474 83.5956 29.2651C83.49 29.3442 82.2755 31.3138 82.0247 31.8125C81.9433 31.9743 81.8253 32.1066 81.7625 32.1066C81.6996 32.1066 81.6482 32.191 81.6482 32.294C81.6482 32.3971 81.4122 32.8128 81.1239 33.2177C80.8355 33.6227 80.5995 34.0431 80.5995 34.1519C80.5995 34.2608 80.5403 34.35 80.4678 34.35C80.3955 34.35 80.2524 34.5519 80.1501 34.7986C80.0477 35.0454 79.9125 35.2473 79.8497 35.2473C79.7869 35.2473 79.6943 35.3651 79.644 35.509C79.4326 36.1132 77.918 38.3108 77.7313 38.2842C77.6197 38.2682 77.0901 38.1478 76.5545 38.0165C76.019 37.8853 75.21 37.7102 74.7568 37.6275C74.3036 37.5446 73.8248 37.4182 73.6927 37.3466C73.5605 37.275 73.1223 37.1686 72.7189 37.1103C72.3154 37.052 71.9178 36.9518 71.8354 36.8875C71.753 36.8233 71.3485 36.7224 70.9366 36.6631C70.5246 36.6041 70.1201 36.5043 70.0377 36.4418C69.9553 36.3791 69.5845 36.283 69.2137 36.2278C68.8429 36.1727 68.4047 36.0685 68.2399 35.9961C68.0751 35.9237 67.5695 35.7951 67.1163 35.7103C65.0811 35.3296 64.5584 35.1686 64.7467 34.9806C64.8469 34.8806 64.9981 34.7986 65.0826 34.7986C65.1669 34.7986 65.4568 34.5508 65.7268 34.248C66.3027 33.6019 66.3638 32.9287 65.9213 32.1066C65.7664 31.8187 65.5367 31.3813 65.411 31.1345C65.2853 30.8878 64.9825 30.3494 64.7383 29.9381C64.494 29.5268 64.1033 28.8201 63.87 28.3677C63.6368 27.9153 63.3954 27.5228 63.3335 27.4954C63.2717 27.4679 63.2212 27.3793 63.2212 27.2986C63.2212 27.2178 62.8841 26.5821 62.4721 25.8857C62.0601 25.1894 61.723 24.5868 61.723 24.5465C61.723 24.5062 61.5659 24.2224 61.3738 23.9155C61.1818 23.6087 60.7773 22.9034 60.4749 22.3481C60.1726 21.793 59.6781 20.8844 59.3761 20.3291C59.0739 19.7738 58.7873 19.286 58.7392 19.2449C58.691 19.2037 58.4886 18.8336 58.2893 18.4223C58.0899 18.011 57.8878 17.6409 57.84 17.5998C57.744 17.5172 57.2976 16.6867 56.3122 14.7582C55.9551 14.059 55.6276 13.4533 55.5843 13.4121C55.5056 13.3371 55.2165 12.8138 54.6342 11.6923C54.4632 11.3633 54.2784 11.0604 54.2232 11.0193C54.1681 10.9782 54.071 10.7763 54.0077 10.5706C53.9443 10.365 53.851 10.1631 53.8002 10.122C53.7495 10.0809 53.48 9.60975 53.2014 9.07509C52.9227 8.54043 52.4782 7.69918 52.2136 7.20565C51.9491 6.71212 51.4183 5.71952 51.034 4.99971L50.3356 3.6911H61.6228H72.91L73.2979 4.47626ZM46.3925 4.55104C46.5846 4.90055 46.9055 5.47275 47.1055 5.82226C47.3056 6.17177 47.7465 6.99627 48.0854 7.65432C48.4243 8.31236 49.039 9.45646 49.4514 10.1968C49.8638 10.9371 50.2803 11.7278 50.3771 11.954C50.4737 12.1803 50.6 12.3653 50.6578 12.3653C50.7157 12.3653 50.8074 12.5672 50.8616 12.814C50.9158 13.0607 51.0075 13.2626 51.0653 13.2626C51.1232 13.2626 51.2481 13.4478 51.3431 13.6739C51.4381 13.9002 51.9251 14.8255 52.4255 15.7303C52.9259 16.6351 53.4767 17.6608 53.6498 18.0094L53.9642 18.6433L52.5702 20.477C51.8035 21.4857 51.1055 22.3972 51.0189 22.5029C50.9324 22.6085 50.7942 22.7769 50.7118 22.877C49.8324 23.9451 49.4384 24.4795 49.4384 24.6042C49.4384 24.6863 49.3879 24.7759 49.326 24.8034C49.1294 24.8906 48.09 26.2429 48.09 26.4113C48.09 26.5002 48.0357 26.5731 47.9691 26.5731C47.9025 26.5731 47.6425 26.859 47.3913 27.2087C46.7577 28.09 43.4189 32.4638 43.3095 32.5553C43.2604 32.5964 43.0238 32.919 42.7838 33.2723C42.5437 33.6254 42.2993 33.9441 42.2406 33.9803C42.182 34.0165 41.6845 33.7106 41.1351 33.3007C40.5857 32.8907 40.0719 32.5553 39.9932 32.5553C39.9146 32.5553 39.8503 32.497 39.8503 32.4256C39.8503 32.3543 39.5673 32.109 39.2215 31.8805C38.5483 31.4357 38.5463 31.4344 37.7529 30.7614C37.4645 30.5169 37.1883 30.3157 37.1391 30.3144C37.09 30.313 36.9108 30.1943 36.7411 30.0502C36.5714 29.9064 36.2837 29.6876 36.1018 29.5642C35.7755 29.3428 34.5237 28.4172 34.2323 28.1817C34.1499 28.1151 32.5835 26.9449 30.7514 25.5811L27.4203 23.1016L27.782 22.7062C27.9809 22.4887 28.5361 21.8399 29.0157 21.2645C29.4954 20.6891 29.9569 20.1441 30.0414 20.0535C30.1261 19.9627 30.4602 19.5419 30.7839 19.118C31.1077 18.6942 31.4262 18.3475 31.4915 18.3475C31.557 18.3475 31.6106 18.2771 31.6106 18.1908C31.6106 18.1047 31.7647 17.8859 31.9532 17.7047C32.1418 17.5236 32.5968 16.9967 32.9644 16.534C33.8795 15.3826 36.5648 12.1754 36.7679 11.9914C36.8587 11.9092 37.3029 11.3709 37.755 10.7951C38.207 10.2195 38.7129 9.61379 38.8792 9.44913C39.0455 9.28462 39.5592 8.67877 40.021 8.10298C40.4825 7.52719 41.0374 6.8675 41.2542 6.63704C41.4708 6.40672 41.6481 6.15996 41.6481 6.08877C41.6481 6.01758 41.6986 5.93697 41.7604 5.90945C41.8223 5.88208 42.2708 5.40276 42.7574 4.84447L43.6422 3.82928L44.8427 3.87236L46.0431 3.91543L46.3925 4.55104ZM99.0974 39.0415C98.9348 39.1541 98.431 39.4368 97.9778 39.6695C97.5247 39.9022 97.1202 40.1297 97.079 40.175C97.0378 40.2203 96.7344 40.3917 96.4048 40.5558C96.0752 40.72 95.3149 41.1405 94.7151 41.4905C94.1154 41.8404 93.564 42.1268 93.4899 42.1268C93.4157 42.1268 93.2659 42.211 93.157 42.3138C93.0482 42.4167 92.6557 42.6561 92.2849 42.8462C90.6407 43.6885 89.8094 44.1539 89.7631 44.258C89.7356 44.3198 89.6439 44.3702 89.5592 44.3702C89.4744 44.3702 88.8472 44.7067 88.1651 45.118C87.483 45.5292 86.8824 45.8657 86.8304 45.8657C86.7784 45.8657 86.4845 46.0226 86.177 46.2145C85.58 46.587 84.5086 47.1826 82.6969 48.149C82.0789 48.4785 81.5059 48.7979 81.4235 48.8586C81.3411 48.9195 80.8018 49.2256 80.225 49.5391C79.1234 50.1378 78.8017 50.384 78.8017 50.6283C78.8017 50.7097 78.73 50.8 78.6422 50.8292C78.5546 50.8583 78.4459 51.156 78.401 51.4905C78.3156 52.127 78.2596 51.9948 79.8531 54.9138C80.1225 55.4074 80.3922 55.8785 80.4524 55.9607C80.5125 56.043 80.7971 56.5477 81.0849 57.0824C81.3725 57.6171 81.7468 58.29 81.9162 58.5779C82.0858 58.8658 82.4143 59.4715 82.6464 59.9239C82.8785 60.3763 83.1027 60.7801 83.1448 60.8214C83.1868 60.8626 83.3475 61.1318 83.5018 61.4196C83.656 61.7074 83.9854 62.3131 84.2337 62.7655C84.4821 63.2179 84.9114 64.0049 85.188 64.5142C85.4645 65.0236 85.8807 65.7639 86.1126 66.1594C86.3445 66.5548 86.6885 67.1811 86.8768 67.5513C87.4016 68.5823 87.5911 68.9076 87.7732 69.0893C87.8651 69.1811 87.9404 69.4016 87.9404 69.5791C87.9404 69.8887 87.8581 69.9062 85.9553 70.0025C84.8635 70.0578 83.4647 70.1682 82.8467 70.2479C82.2287 70.3278 80.7444 70.4564 79.5481 70.5339C78.3519 70.6113 77.2635 70.7166 77.1295 70.7681C76.8605 70.8711 76.8026 70.5193 76.6127 67.626C76.5172 66.1724 76.5003 66.117 76.0058 65.6504C75.3349 65.0172 74.5827 64.8756 73.8714 65.2487C73.5757 65.4038 73.2563 65.632 73.1617 65.7559C73.0672 65.8797 72.8558 66.1338 72.6919 66.3206C72.5282 66.5074 72.2347 66.8938 72.0399 67.1795C71.845 67.4651 71.6351 67.6992 71.5733 67.6998C71.5114 67.7004 71.4609 67.8018 71.4609 67.9252C71.4609 68.0485 71.4097 68.1495 71.347 68.1495C71.2844 68.1495 70.8673 68.6284 70.4201 69.2136C69.9731 69.7988 69.5356 70.3542 69.448 70.4479C69.3604 70.5413 69.0374 70.9543 68.7303 71.3654C68.4231 71.7764 68.1193 72.18 68.055 72.2623C67.9908 72.3445 67.5683 72.8829 67.1163 73.4587C66.6643 74.0345 66.2435 74.5729 66.1812 74.6552C66.1189 74.7374 65.8335 75.0739 65.5469 75.4029C65.2603 75.732 65.0243 76.0854 65.0224 76.1881C65.0204 76.291 64.9645 76.375 64.898 76.375C64.8315 76.375 64.4675 76.7957 64.089 77.3098C63.7106 77.8239 63.2426 78.4198 63.0489 78.6339C62.1464 79.6322 60.1376 82.4181 60.0319 82.818C59.8379 83.5532 60.0994 84.1068 61.8992 86.7691C62.8444 88.1675 64.7989 91.0614 66.2423 93.2C67.6858 95.3387 69.4808 97.9979 70.2311 99.1096C71.9487 101.654 72.2606 101.962 73.1523 101.997C73.7106 102.018 73.9334 101.94 74.4064 101.559C75.0585 101.032 75.1625 100.707 75.1902 99.1075C75.2008 98.4905 75.2513 97.7335 75.3024 97.425L75.3953 96.8641H87.4135H99.4316L99.9407 96.5276C100.297 96.2918 100.639 95.8108 101.083 94.9199C101.432 94.2207 101.718 93.5646 101.72 93.4617C101.722 93.359 101.791 93.2748 101.873 93.2748C101.955 93.2748 102.023 93.1807 102.023 93.0659C102.023 92.9509 102.225 92.4499 102.472 91.9526C102.719 91.4552 102.924 90.9939 102.927 90.9277C102.93 90.8614 103.062 90.5379 103.221 90.2089C103.381 89.8799 103.513 89.5266 103.516 89.4237C103.519 89.321 103.588 89.2368 103.671 89.2368C103.753 89.2368 103.823 89.1528 103.826 89.0499C103.828 88.9471 103.961 88.5937 104.12 88.2647C104.279 87.9357 104.412 87.5824 104.415 87.4795C104.418 87.3768 104.487 87.2926 104.57 87.2926C104.652 87.2926 104.719 87.2215 104.719 87.1348C104.719 86.9488 105.489 85.1632 106.016 84.1289C106.127 83.9105 106.218 83.6244 106.218 83.4933C106.218 83.362 106.285 83.2546 106.367 83.2546C106.45 83.2546 106.517 83.1831 106.517 83.0958C106.517 83.0084 106.679 82.5879 106.878 82.161C107.995 79.7572 108.334 79.0084 108.883 77.721C109.217 76.9396 109.596 76.0984 109.726 75.8516C109.855 75.6048 109.961 75.3189 109.962 75.216C109.962 75.1132 110.03 75.029 110.113 75.029C110.195 75.029 110.263 74.9558 110.263 74.8663C110.263 74.7767 110.465 74.2674 110.712 73.7342C110.959 73.201 111.161 72.7419 111.161 72.7138C111.161 72.6858 111.403 72.1353 111.699 71.4904C112.59 69.5474 112.66 69.382 112.66 69.2112C112.66 69.1207 112.727 69.0468 112.809 69.0468C112.892 69.0468 112.959 68.9701 112.959 68.8763C112.959 68.712 113.374 67.7542 113.802 66.93C114.07 66.4141 114.065 65.3856 113.793 64.8823C113.675 64.664 113.042 63.3749 112.387 62.0177C109.358 55.7436 108.801 54.5945 107.566 52.0723C104.352 45.509 103.821 44.3965 103.821 44.2387C103.821 44.1466 103.753 44.0711 103.671 44.0711C103.588 44.0711 103.521 43.9981 103.521 43.9088C103.521 43.5059 101.385 39.4266 101.027 39.1455C100.567 38.7841 99.5477 38.7292 99.0974 39.0415ZM24.4196 39.5952C23.6368 39.6607 20.2209 39.7856 16.8287 39.8727C13.2177 39.9656 10.486 40.0977 10.2388 40.1914C8.95464 40.6788 8.63748 42.3833 9.63524 43.4355C9.88887 43.7029 10.1552 43.9215 10.2274 43.9215C10.2995 43.9215 10.4501 44.0057 10.5618 44.1085C10.6736 44.2113 11.1407 44.5595 11.5999 44.8824C12.0589 45.2053 12.4345 45.5318 12.4345 45.608C12.4345 45.7476 10.0601 49.7642 9.89516 49.9037C9.84647 49.9449 9.72303 50.1468 9.62085 50.3524C9.51868 50.558 9.3016 50.9282 9.13861 51.1749C8.97561 51.4217 8.79583 51.7246 8.7392 51.8479C8.68257 51.9713 8.59613 52.1059 8.54729 52.1471C8.4983 52.1882 8.37591 52.3901 8.27523 52.5957C8.04332 53.0691 7.76796 53.4978 7.52811 53.7591C7.42504 53.8713 7.34085 54.0536 7.34085 54.1643C7.34085 54.2749 7.28916 54.3878 7.22609 54.4154C7.07403 54.4813 5.21964 57.4935 4.68646 58.5406C4.55028 58.808 4.38398 59.0266 4.31687 59.0266C4.24975 59.0266 4.19477 59.0975 4.19477 59.1841C4.19477 59.2707 3.8914 59.8056 3.52061 60.3726C3.14982 60.9396 2.84645 61.4328 2.84645 61.4684C2.84645 61.5041 2.4087 62.2311 1.87356 63.0841C1.33843 63.9371 0.900228 64.7135 0.899778 64.8095C0.899329 64.9053 0.845396 65.0063 0.780077 65.0338C0.433859 65.1792 0 66.2175 0 66.901C0 67.5429 0.0984273 67.7783 0.774235 68.7528C1.20015 69.3669 2.38697 71.1144 3.41155 72.6362C4.43627 74.1579 5.33515 75.4254 5.40886 75.4527C5.48271 75.4803 5.54309 75.567 5.54309 75.6458C5.54309 75.8135 6.16556 76.726 6.32961 76.7987C6.39148 76.8262 6.44197 76.913 6.44197 76.9918C6.44197 77.1595 7.06444 78.072 7.22849 78.1447C7.29036 78.1722 7.34085 78.259 7.34085 78.3378C7.34085 78.5055 7.96332 79.418 8.12737 79.4907C8.18924 79.5182 8.23973 79.638 8.23973 79.7572C8.23973 79.8763 8.34085 80.0125 8.46445 80.0598C8.58804 80.1072 8.68917 80.2087 8.68917 80.2855C8.68917 80.4129 9.24962 81.2825 9.44617 81.4599C9.49172 81.5011 9.69037 81.8039 9.88767 82.1329C10.085 82.4619 10.2836 82.7648 10.3292 82.8059C10.5284 82.9858 11.0862 83.8537 11.0862 83.9838C11.0862 84.0626 11.1373 84.1494 11.1996 84.1769C11.3226 84.2309 12.1672 85.4538 14.3329 88.7134C15.098 89.8649 15.7929 90.8885 15.8771 90.9878C15.9612 91.0871 16.03 91.2076 16.03 91.2555C16.03 91.3819 16.6838 92.2936 16.8165 92.3525C16.8784 92.38 16.9289 92.4668 16.9289 92.5456C16.9289 92.7132 17.5514 93.6258 17.7154 93.6985C17.7773 93.726 17.8278 93.8128 17.8278 93.8916C17.8278 94.0592 18.4502 94.9718 18.6143 95.0445C18.676 95.072 18.7267 95.1836 18.7267 95.2926C18.7267 95.4015 19.0275 95.7998 19.3953 96.1774L20.0637 96.8641H34.7654C50.9711 96.8641 49.9651 96.9231 50.5291 95.9418C50.7665 95.5292 50.7867 94.6039 50.7867 84.1948C50.7867 73.2912 50.7765 72.8795 50.4974 72.4295C49.9504 71.5478 49.5741 71.4408 46.483 71.2875C44.9362 71.2107 41.7829 71.0797 39.4758 70.9963C37.1687 70.9128 34.4383 70.7761 33.4083 70.6924C32.3784 70.6086 31.0131 70.5407 30.3746 70.5413C29.7361 70.5419 29.2136 70.5167 29.2136 70.4851C29.2136 70.4537 29.7522 69.3601 30.4103 68.0548C31.0684 66.7497 31.6077 65.5978 31.6088 65.4949C31.6098 65.3921 31.6726 65.3079 31.7486 65.3079C31.8244 65.3079 31.9309 65.106 31.9851 64.8593C32.0394 64.6125 32.1405 64.4106 32.2098 64.4106C32.2792 64.4106 32.3803 64.2087 32.4346 63.9619C32.4888 63.7152 32.5899 63.5133 32.6593 63.5133C32.7286 63.5133 32.8298 63.3114 32.884 63.0646C32.9382 62.8178 33.0447 62.6159 33.1206 62.6159C33.1965 62.6159 33.2585 62.5401 33.2585 62.4474C33.2585 62.3547 33.4689 61.8523 33.7258 61.3311L34.1932 60.3835L35.0367 60.846C35.5006 61.1002 35.9814 61.389 36.105 61.4877C36.5961 61.8795 38.2521 62.6159 38.6425 62.6159C39.1688 62.6159 39.9753 62.075 40.315 61.4943C40.6082 60.9931 40.6785 60.2895 40.4496 60.1483C40.3672 60.0974 40.2993 59.942 40.2989 59.803C40.2983 59.6639 40.2036 59.3695 40.0882 59.1488C39.9729 58.9282 39.8301 58.5244 39.7708 58.2515C39.7114 57.9787 39.6208 57.7217 39.5693 57.6806C39.5179 57.6395 39.3146 57.1347 39.1174 56.5589C38.9204 55.9832 38.709 55.4448 38.6479 55.3625C38.5866 55.2802 38.4866 54.9774 38.4256 54.6895C38.3645 54.4016 38.2725 54.1324 38.2209 54.0913C38.1696 54.0502 37.9693 53.5454 37.776 52.9696C37.5827 52.3938 37.3382 51.7208 37.2326 51.4741C37.127 51.2273 36.822 50.4197 36.5549 49.6794C36.2876 48.9391 35.9835 48.1315 35.8788 47.8847C35.7742 47.638 35.5364 46.9798 35.3507 46.4219C35.1648 45.8642 34.9552 45.3723 34.8848 45.3288C34.8143 45.2855 34.7567 45.1417 34.7567 45.0097C34.7567 44.7862 34.0874 42.9264 33.6385 41.9025C33.5303 41.6557 33.3286 41.1368 33.1902 40.7494C33.0172 40.2646 32.7845 39.9499 32.4441 39.7399C31.9856 39.457 31.7283 39.4363 28.8963 39.4553C27.2169 39.4667 25.2023 39.5295 24.4196 39.5952ZM30.3074 43.6598C30.3848 43.9848 30.4774 44.2389 31.1658 46.0153C31.3411 46.4677 31.5529 47.0734 31.6364 47.3613C31.7199 47.6492 31.8494 47.9487 31.9241 48.0268C31.9989 48.1049 32.0605 48.2731 32.0609 48.4007C32.0615 48.5283 32.1626 48.8253 32.2856 49.0608C32.4088 49.2965 32.5099 49.5657 32.5104 49.6591C32.511 49.7525 32.6025 50.0035 32.714 50.2167C32.8256 50.43 32.9629 50.8507 33.0196 51.1515C33.0761 51.4522 33.1791 51.6984 33.2486 51.6984C33.3182 51.6984 33.4187 51.9311 33.4722 52.2156C33.5256 52.5 33.6675 52.9206 33.7875 53.1503C33.9075 53.3798 34.0061 53.6816 34.0067 53.8207C34.0071 53.9598 34.075 54.1152 34.1574 54.1661C34.2398 54.2169 34.3095 54.3723 34.3123 54.5114C34.3152 54.6505 34.4476 55.0335 34.6069 55.3625C35.0301 56.2371 34.9868 56.3442 34.3447 56.0099C33.6073 55.6262 32.7698 55.7243 32.2095 56.2601C31.8199 56.6328 29.2136 61.6026 29.2136 61.9729C29.2136 62.066 29.1629 62.1647 29.1012 62.1922C29.0395 62.2196 28.6593 62.9151 28.2564 63.7376C26.9427 66.4202 23.2717 73.6308 22.5458 74.9543C22.3204 75.3655 21.7625 76.4087 21.3061 77.2724C20.8498 78.1361 20.2585 79.2465 19.9923 79.74C19.7261 80.2336 19.2144 81.2094 18.8553 81.9086C18.4961 82.6078 18.1571 83.2142 18.1018 83.2561C18.0465 83.2981 17.955 83.5168 17.8983 83.7421C17.8417 83.9675 17.7425 84.1519 17.678 84.1519C17.6134 84.1519 17.5192 84.3034 17.4684 84.4884C17.4177 84.6734 17.279 84.9508 17.1601 85.1049C16.8511 85.5052 17.1466 85.8821 13.3061 80.1887C6.94204 70.7538 5.99073 69.3456 5.34414 68.4031C4.19687 66.7308 4.20286 66.9846 5.27058 65.2176C5.79118 64.3559 6.28377 63.5188 6.36511 63.3577C6.44646 63.1965 6.56451 63.0646 6.62729 63.0646C6.69021 63.0646 6.74159 62.9874 6.74159 62.8932C6.74159 62.7988 6.97755 62.3668 7.26594 61.9331C7.55433 61.4994 7.79029 61.0773 7.79029 60.9954C7.79029 60.9133 7.84077 60.8238 7.90265 60.7963C8.04092 60.735 8.68917 59.8231 8.68917 59.69C8.68917 59.6369 8.87778 59.3145 9.10819 58.9735C9.33876 58.6325 9.57546 58.2527 9.63419 58.1293C9.69306 58.0059 9.85846 57.7258 10.0017 57.5068C10.2553 57.119 11.3003 55.4319 13.5524 51.7732C14.1599 50.7861 14.7638 49.847 14.8941 49.6864C15.0245 49.5257 15.1311 49.3336 15.1311 49.2594C15.1311 49.1853 15.3334 48.8254 15.5806 48.4598C15.8278 48.0941 16.03 47.731 16.03 47.6529C16.03 47.5747 16.0929 47.5108 16.1698 47.5108C16.2466 47.5108 16.3568 47.3595 16.4146 47.1743C16.4726 46.9892 16.5648 46.8042 16.62 46.7631C16.675 46.7219 16.8681 46.4448 17.0492 46.1472C17.3998 45.571 17.4792 44.688 17.2233 44.2107C17.1379 44.0516 17.0874 43.9166 17.1109 43.9104C17.3968 43.8361 26.4419 43.413 29.0837 43.3504C30.1566 43.3249 30.2323 43.3441 30.3074 43.6598ZM100.339 46.2022C101.573 48.6802 107.379 60.4601 107.987 61.7186C108.126 62.0065 108.285 62.2765 108.341 62.3183C108.396 62.3604 108.487 62.579 108.544 62.8044C108.601 63.0298 108.707 63.2142 108.781 63.2142C108.854 63.2142 108.914 63.2921 108.914 63.3875C108.914 63.4828 109.159 64.0484 109.458 64.6444C109.904 65.5335 109.984 65.8244 109.901 66.2657C109.845 66.5615 109.741 66.8035 109.668 66.8035C109.596 66.8035 109.495 66.9886 109.443 67.2148C109.392 67.4409 109.25 67.7583 109.129 67.9199C108.89 68.2392 108.832 68.2461 103.521 68.5823C102.079 68.6735 100.663 68.7802 100.375 68.8191C100.086 68.8581 98.3674 68.9933 96.5546 69.1197C94.7419 69.2462 93.0539 69.388 92.8037 69.4348C92.4145 69.5078 92.3171 69.4589 92.1296 69.0965C92.009 68.8636 91.6238 68.1831 91.2737 67.5843C90.9236 66.9857 90.637 66.4353 90.637 66.3613C90.637 66.2872 90.5528 66.1377 90.4497 66.0289C90.3468 65.9204 90.0986 65.4949 89.8984 65.0836C89.6981 64.6723 89.2936 63.9307 88.9995 63.4355C88.7053 62.9402 88.2962 62.1999 88.0902 61.7904C87.8842 61.3808 87.6819 61.012 87.6407 60.9707C87.5995 60.9296 87.4395 60.6604 87.2852 60.3725C86.9009 59.6559 86.0406 58.0751 85.4945 57.0824C85.2457 56.63 84.8636 55.9233 84.6455 55.5121C84.4274 55.1008 83.9595 54.2368 83.6058 53.5922C83.2519 52.9476 83.0208 52.3666 83.092 52.301C83.1631 52.2353 83.6594 51.9474 84.195 51.661C84.7306 51.3746 85.4048 51.0018 85.6932 50.8326C85.9815 50.6633 86.5883 50.3346 87.0415 50.1022C87.4947 49.8696 87.8879 49.629 87.9153 49.5672C87.9429 49.5055 88.0346 49.4551 88.1192 49.4551C88.204 49.4551 88.8313 49.1186 89.5134 48.7073C90.1955 48.296 90.7961 47.9595 90.8481 47.9595C90.9001 47.9595 91.194 47.8023 91.5014 47.6101C91.8087 47.4181 92.5995 46.9678 93.2587 46.6093C93.9179 46.251 94.6258 45.866 94.8318 45.7539C95.0378 45.6417 95.4085 45.4229 95.6557 45.2678C95.9029 45.1127 96.4423 44.8115 96.8542 44.5985C97.2662 44.3856 97.873 44.048 98.2026 43.8485C98.5321 43.649 98.8418 43.4829 98.8908 43.4793C98.9398 43.4758 99.5913 44.701 100.339 46.2022ZM73.1941 73.7874C73.5673 74.595 74.1259 74.8795 75.339 74.8795C75.922 74.8795 76.8555 74.8122 77.4131 74.7299C77.9709 74.6477 79.4047 74.5093 80.5995 74.4224C81.7943 74.3355 83.8505 74.1654 85.1688 74.0442C90.0169 73.5987 92.7191 73.3826 95.2063 73.2413C96.607 73.1617 98.3936 73.0277 99.1763 72.9435C99.9591 72.8591 101.779 72.7177 103.221 72.629C104.663 72.5403 106.172 72.4308 106.575 72.3858L107.307 72.3037L107.201 72.7316C107.142 72.967 107.032 73.182 106.956 73.2094C106.879 73.2369 106.817 73.3304 106.817 73.4174C106.817 73.5043 106.672 73.8857 106.496 74.2648C106.319 74.6441 106.087 75.1562 105.98 75.4029C105.637 76.1941 104.261 79.2268 102.994 81.9834C102.805 82.3946 102.501 83.0676 102.319 83.4789C102.137 83.8902 101.834 84.5632 101.645 84.9745C100.901 86.5937 100.674 87.133 100.674 87.2844C100.674 87.3711 100.607 87.4421 100.525 87.4421C100.442 87.4421 100.375 87.5132 100.375 87.5999C100.375 87.7577 100.113 88.3755 99.3332 90.0594C99.1046 90.5529 98.8039 91.2259 98.6649 91.5549C98.526 91.8839 98.319 92.3214 98.2046 92.527L97.9967 92.9009L85.5902 92.9757C78.5304 93.0183 73.0546 93.1098 72.8841 93.1881C72.5114 93.3593 71.9767 93.8789 71.8879 94.1561C71.8512 94.2707 70.476 92.3585 68.832 89.9065C67.1881 87.4547 65.5248 84.9787 65.1362 84.4042C64.7287 83.802 64.4751 83.2827 64.537 83.1777C64.6762 82.9417 65.2834 82.167 65.8031 81.5625C66.0284 81.3005 66.2137 81.0382 66.215 80.9797C66.2164 80.9212 66.3389 80.753 66.4872 80.6058C66.6357 80.4586 67.1201 79.8672 67.5635 79.2914C68.007 78.7156 68.4249 78.222 68.4922 78.1947C68.5595 78.1672 68.6144 78.0495 68.6144 77.933C68.6144 77.8165 68.6763 77.721 68.752 77.721C68.8278 77.721 69.0366 77.4837 69.2161 77.1936C69.3957 76.9036 69.6212 76.5838 69.7172 76.4832C69.8131 76.3827 70.2612 75.8292 70.7126 75.2534C71.1641 74.6776 71.6016 74.12 71.6846 74.0143C71.7676 73.9087 71.903 73.7405 71.9854 73.6404C72.0679 73.5405 72.3039 73.2069 72.5097 72.8989L72.8841 72.3393L72.9286 72.8241C72.9532 73.091 73.0726 73.5244 73.1941 73.7874ZM34.3072 74.7383C35.5844 74.8245 38.4496 74.9653 40.6743 75.0516C42.899 75.1379 45.1744 75.2411 45.7305 75.281L46.7417 75.3537V84.1646V92.9757H34.3944C27.6034 92.9757 21.9404 92.9349 21.8101 92.8849C21.6798 92.835 21.5731 92.734 21.5731 92.6604C21.5731 92.587 21.1045 91.8159 20.5317 90.947C19.3488 89.1522 19.3545 89.4368 20.4598 87.3674C20.8552 86.6271 21.3855 85.6176 21.6381 85.124C21.8907 84.6305 22.1389 84.193 22.1896 84.1519C22.2404 84.1108 22.3337 83.9089 22.3971 83.7033C22.4604 83.4976 22.5538 83.2957 22.6046 83.2546C22.6927 83.1831 23.433 81.7895 24.6705 79.3661C24.9855 78.7492 25.2849 78.2108 25.3357 78.1697C25.3863 78.1286 25.4805 77.9267 25.5448 77.721C25.6092 77.5154 25.8107 77.1116 25.9926 76.8237C26.1745 76.5358 26.5009 75.9253 26.718 75.4669C26.9351 75.0087 27.15 74.5964 27.1957 74.5509C27.3092 74.4375 31.4726 74.5473 34.3072 74.7383Z" fill="#60A62E"/>
</svg>
