<svg width="346" height="346" viewBox="0 0 346 346" fill="none" xmlns="http://www.w3.org/2000/svg">
<circle cx="173" cy="173" r="173" fill="black"/>
<path d="M154.195 152.757V145.254C151.591 144.884 148.964 144.693 146.335 144.681C114.169 144.681 88 170.854 88 203.02C88 222.75 97.8611 240.217 112.904 250.779C102.831 240.008 97.2304 225.809 97.239 211.062C97.239 179.354 122.664 153.496 154.195 152.757Z" fill="#00F2EA"/>
<path d="M155.572 237.701C169.924 237.701 181.63 226.284 182.164 212.056L182.213 85.0419H205.418C204.922 82.3891 204.672 79.6977 204.67 77H172.976L172.923 204.018C172.395 218.242 160.683 229.655 146.335 229.655C142.027 229.657 137.784 228.608 133.975 226.596C138.966 233.561 147.004 237.693 155.572 237.701ZM248.761 128.156V121.098C240.234 121.106 231.888 118.625 224.751 113.96C231.01 121.166 239.434 126.147 248.765 128.156" fill="#00F2EA"/>
<path d="M224.751 113.954C217.756 105.95 213.902 95.6789 213.906 85.0483H205.416C207.637 96.9209 214.625 107.368 224.751 113.954ZM146.335 176.374C131.628 176.391 119.71 188.308 119.693 203.015C119.702 212.917 125.2 221.998 133.971 226.598C130.693 222.079 128.93 216.643 128.93 211.062C128.945 196.354 140.862 184.433 155.572 184.416C158.316 184.416 160.948 184.869 163.432 185.649V153.293C160.828 152.923 158.201 152.733 155.572 152.72C155.11 152.72 154.655 152.746 154.197 152.755V177.607C151.653 176.799 149.003 176.382 146.335 176.374Z" fill="#FF004F"/>
<path d="M248.761 128.156V152.789C232.325 152.789 217.102 147.532 204.667 138.61V203.018C204.667 235.183 178.502 261.352 146.337 261.352C133.906 261.352 122.38 257.43 112.906 250.777C123.917 262.652 139.379 269.398 155.572 269.394C187.737 269.394 213.906 243.225 213.906 211.064V146.656C226.752 155.893 242.179 160.854 258 160.835V129.133C254.828 129.133 251.743 128.789 248.759 128.15" fill="#FF004F"/>
<path d="M204.665 203.015V138.608C217.511 147.847 232.938 152.806 248.759 152.787V128.156C239.43 126.145 231.006 121.162 224.749 113.954C214.623 107.368 207.634 96.9209 205.413 85.0483H182.211L182.162 212.062C181.63 226.286 169.922 237.703 155.57 237.703C147.004 237.695 138.964 233.561 133.975 226.6C125.204 222.002 119.704 212.921 119.693 203.018C119.71 188.31 131.628 176.393 146.335 176.376C149.075 176.376 151.707 176.825 154.195 177.609V152.757C122.664 153.496 97.239 179.354 97.239 211.062C97.239 226.395 103.197 240.354 112.904 250.779C122.69 257.669 134.368 261.361 146.335 261.35C178.502 261.35 204.665 235.181 204.665 203.015Z" fill="white"/>
</svg>
