<svg width="85" height="85" viewBox="0 0 85 85" fill="none" xmlns="http://www.w3.org/2000/svg">
<circle cx="42.5" cy="42.5" r="40.5" fill="#e30661"/>
<path fill-rule="evenodd" clip-rule="evenodd" d="M42.5 85C65.9721 85 85 65.9721 85 42.5C85 19.0279 65.9721 0 42.5 0C19.0279 0 0 19.0279 0 42.5C0 65.9721 19.0279 85 42.5 85ZM33.75 20H50.25C57.8427 20 64 26.1572 64 33.75V50.25C64 57.8428 57.8427 64 50.25 64H33.75C26.1573 64 20 57.8428 20 50.25V33.75C20 26.1572 26.1573 20 33.75 20ZM50.25 59.875C55.5575 59.875 59.875 55.5575 59.875 50.25V33.75C59.875 28.4425 55.5575 24.125 50.25 24.125H33.75C28.4425 24.125 24.125 28.4425 24.125 33.75V50.25C24.125 55.5575 28.4425 59.875 33.75 59.875H50.25ZM42 31C35.9252 31 31 35.9252 31 42C31 48.0748 35.9252 53 42 53C48.0748 53 53 48.0748 53 42C53 35.9252 48.0748 31 42 31ZM42 48.875C38.2105 48.875 35.125 45.7895 35.125 42C35.125 38.2077 38.2105 35.125 42 35.125C45.7895 35.125 48.875 38.2077 48.875 42C48.875 45.7895 45.7895 48.875 42 48.875ZM55.2907 30.175C55.2907 30.9845 54.6345 31.6407 53.825 31.6407C53.0155 31.6407 52.3593 30.9845 52.3593 30.175C52.3593 29.3655 53.0155 28.7093 53.825 28.7093C54.6345 28.7093 55.2907 29.3655 55.2907 30.175Z" fill="#fff"/>
</svg>
