<svg width="81" height="81" viewBox="0 0 81 81" fill="none" xmlns="http://www.w3.org/2000/svg">
<circle cx="40.5" cy="40.5" r="40.5" fill="#fff"/>
<path d="M56 20H24C21.24 20 19 22.24 19 25V57C19 59.76 21.24 62 24 62H56C58.76 62 61 59.76 61 57V25C61 22.24 58.76 20 56 20ZM32 36V55H26V36H32ZM26 30.47C26 29.07 27.2 28 29 28C30.8 28 31.93 29.07 32 30.47C32 31.87 30.88 33 29 33C27.2 33 26 31.87 26 30.47ZM54 55H48C48 55 48 45.74 48 45C48 43 47 41 44.5 40.96H44.42C42 40.96 41 43.02 41 45C41 45.91 41 55 41 55H35V36H41V38.56C41 38.56 42.93 36 46.81 36C50.78 36 54 38.73 54 44.26V55Z" fill="#e30661"/>
</svg>
