<svg width="85" height="85" viewBox="0 0 85 85" fill="none" xmlns="http://www.w3.org/2000/svg">
<circle cx="42.5" cy="42.5" r="40.5" fill="#e30661"/>
<path fill-rule="evenodd" clip-rule="evenodd" d="M42.5 85C65.9721 85 85 65.9721 85 42.5C85 19.0279 65.9721 0 42.5 0C19.0279 0 0 19.0279 0 42.5C0 65.9721 19.0279 85 42.5 85ZM42.3981 62.8665C54.3297 62.8665 64 53.2708 64 41.434C64 29.5972 54.3311 20.0029 42.401 20C30.4695 20 20.802 29.5957 20.8006 41.4325C20.8006 45.4786 21.9326 49.2692 23.8983 52.4975L20 64L31.9588 60.2022C35.055 61.8981 38.6118 62.8665 42.3981 62.8665ZM24.2383 41.4383C24.2383 31.5011 32.3835 23.4176 42.3967 23.4176C52.4114 23.4176 60.5609 31.5011 60.558 41.434C60.558 51.3712 52.41 59.4532 42.3967 59.4532C38.7094 59.4532 35.276 58.3571 32.4064 56.4746L25.4306 58.6914L27.6975 52.001C25.5239 49.0311 24.2383 45.381 24.2383 41.4383ZM52.5873 45.9031C52.9518 46.0788 53.1989 46.1979 53.3067 46.371C53.4401 46.5905 53.4401 47.6451 52.9982 48.8761C52.5592 50.1014 50.3984 51.2822 49.4256 51.3712C49.2597 51.3864 49.1222 51.4195 48.9812 51.4535C48.2982 51.6181 47.5346 51.8022 43.0711 50.0598C38.1149 48.1228 34.8415 43.3226 34.1463 42.3032C34.0866 42.2156 34.046 42.156 34.0248 42.1284L34.0234 42.1265C33.7526 41.7693 31.8641 39.2786 31.8641 36.695C31.8641 34.2811 33.0572 33.0141 33.609 32.428C33.6483 32.3864 33.6843 32.3481 33.7164 32.3132C34.1999 31.7866 34.7738 31.6589 35.1267 31.6589C35.3092 31.6589 35.4916 31.6704 35.6679 31.6815C35.8327 31.6919 35.9921 31.702 36.1411 31.702C36.178 31.702 36.2167 31.6995 36.2571 31.6969C36.5559 31.678 36.9439 31.6533 37.332 32.5786C37.4938 32.9624 37.7373 33.5499 37.9878 34.1543C38.4238 35.2063 38.8809 36.3092 38.9648 36.4769C39.0953 36.7423 39.1828 37.0479 39.0092 37.3994C38.9839 37.4499 38.9604 37.4976 38.9379 37.5432C38.8039 37.815 38.7071 38.0115 38.4798 38.2732C38.3922 38.3749 38.3017 38.4842 38.2112 38.5934C38.0274 38.8153 37.8436 39.0371 37.6849 39.1957C37.4224 39.4569 37.1426 39.741 37.4539 40.2661C37.761 40.7926 38.8241 42.5101 40.3981 43.9047C42.0782 45.3905 43.5406 46.0224 44.2914 46.3468C44.4446 46.413 44.5682 46.4664 44.6579 46.5116C45.1873 46.7713 45.4958 46.7268 45.8043 46.3753C46.1156 46.0224 47.1314 44.8401 47.4801 44.3136C47.833 43.787 48.186 43.876 48.6738 44.0524C49.1573 44.2246 51.7643 45.4944 52.2909 45.7584C52.3968 45.8114 52.4958 45.859 52.5873 45.9031Z" fill="#fff"/>
</svg>
