<svg width="341" height="139" viewBox="0 0 341 139" fill="none" xmlns="http://www.w3.org/2000/svg">
<path d="M164.202 49.4987H161.272V34.1973H164.202V49.4987Z" fill="#1E130F"/>
<path d="M179.611 42.1984V49.4998H176.749V43.0291C176.749 41.3904 175.765 40.3838 174.147 40.3838C172.223 40.4064 171.087 41.8264 171.087 43.7504V49.4998H168.246V37.8051H171.087V39.9904C171.918 38.4384 173.382 37.7184 175.285 37.6958C177.971 37.6958 179.611 39.4224 179.611 42.1984Z" fill="#1E130F"/>
<path d="M186.694 39.9033C185.775 39.9033 185.121 40.21 185.121 40.9313C185.121 42.898 191.306 41.8713 191.306 46.0673C191.306 48.45 189.186 49.6086 186.694 49.6086C184.925 49.6086 183.087 49.0406 181.863 47.97L182.846 45.9806C183.918 46.898 185.535 47.4233 186.803 47.4233C187.787 47.4233 188.53 47.0953 188.53 46.33C188.53 44.166 182.431 45.346 182.454 41.1926C182.454 38.7886 184.509 37.674 186.869 37.674C188.399 37.674 189.995 38.1326 191.154 38.9193L190.126 40.9753C188.99 40.2966 187.699 39.9033 186.694 39.9033Z" fill="#1E130F"/>
<path d="M200.968 48.7779C200.072 49.3245 199.066 49.6299 198.039 49.6299C196.136 49.6299 194.607 48.5379 194.607 46.1325V40.3619H192.968L192.946 38.2859H194.607V35.0726H197.427V38.2859H200.771V40.3619H197.427V45.6299C197.427 46.7445 197.886 47.1165 198.65 47.1165C199.131 47.1165 199.679 46.9419 200.312 46.6352L200.968 48.7779Z" fill="#1E130F"/>
<path d="M206.434 49.4987H203.592V37.804H206.434V49.4987ZM206.608 34.4613C206.608 35.4227 205.954 36.144 205.012 36.144C204.074 36.144 203.418 35.4227 203.418 34.4613C203.418 33.4773 204.074 32.7773 205.012 32.7773C205.954 32.7773 206.608 33.4773 206.608 34.4613Z" fill="#1E130F"/>
<path d="M217.188 48.7779C216.292 49.3245 215.286 49.6299 214.259 49.6299C212.356 49.6299 210.827 48.5379 210.827 46.1325V40.3619H209.188L209.166 38.2859H210.827V35.0726H213.647V38.2859H216.991V40.3619H213.647V45.6299C213.647 46.7445 214.106 47.1165 214.871 47.1165C215.351 47.1165 215.899 46.9419 216.532 46.6352L217.188 48.7779Z" fill="#1E130F"/>
<path d="M230.609 37.8049V49.4996H227.745V47.3356C226.936 48.8876 225.537 49.6089 223.68 49.6089C221.057 49.6089 219.439 47.8823 219.439 45.1276V37.8049H222.303V44.2969C222.303 45.9356 223.243 46.9196 224.816 46.9196C226.653 46.8983 227.745 45.4556 227.745 43.5756V37.8049H230.609Z" fill="#1E130F"/>
<path d="M241.386 48.7779C240.49 49.3245 239.484 49.6299 238.457 49.6299C236.554 49.6299 235.025 48.5379 235.025 46.1325V40.3619H233.386L233.364 38.2859H235.025V35.0726H237.845V38.2859H241.189V40.3619H237.845V45.6299C237.845 46.7445 238.304 47.1165 239.069 47.1165C239.549 47.1165 240.097 46.9419 240.73 46.6352L241.386 48.7779Z" fill="#1E130F"/>
<path d="M245.714 43.6849C245.714 45.7836 247.069 47.2263 248.993 47.2263C250.94 47.2263 252.294 45.7836 252.294 43.6849C252.294 41.5863 250.94 40.1663 248.993 40.1663C247.069 40.1663 245.714 41.5863 245.714 43.6849ZM255.18 43.6409C255.18 47.2036 252.665 49.6089 248.993 49.6089C245.344 49.6089 242.829 47.2036 242.829 43.6409C242.829 40.0996 245.344 37.7183 248.993 37.7183C252.665 37.7183 255.18 40.0996 255.18 43.6409" fill="#1E130F"/>
<path d="M168.202 62.9437C165.317 62.9437 163.065 65.173 163.065 68.0144C163.065 70.8784 165.317 73.1077 168.202 73.1077C169.666 73.1077 171.218 72.4304 172.355 71.3157L174.081 73.2397C172.507 74.8344 170.257 75.8624 168.049 75.8624C163.546 75.8624 160.07 72.4744 160.07 68.0584C160.07 63.6864 163.59 60.3424 168.158 60.3424C170.343 60.3424 172.573 61.2824 174.059 62.7904L172.355 64.933C171.262 63.709 169.71 62.9437 168.202 62.9437Z" fill="#1E130F"/>
<path d="M187.569 64.0364V75.7311H184.705V73.5671C183.896 75.1191 182.497 75.8404 180.64 75.8404C178.017 75.8404 176.398 74.1137 176.398 71.3591V64.0364H179.262V70.5284C179.262 72.1671 180.202 73.1511 181.776 73.1511C183.613 73.1297 184.705 71.6871 184.705 69.8071V64.0364H187.569Z" fill="#1E130F"/>
<path d="M194.455 75.7307H191.614V59.512H194.455V75.7307Z" fill="#1E130F"/>
<path d="M205.341 75.0095C204.445 75.5562 203.438 75.8615 202.411 75.8615C200.509 75.8615 198.979 74.7695 198.979 72.3642V66.5935H197.341L197.318 64.5175H198.979V61.3042H201.799V64.5175H205.143V66.5935H201.799V71.8615C201.799 72.9762 202.258 73.3482 203.023 73.3482C203.503 73.3482 204.051 73.1735 204.685 72.8668L205.341 75.0095Z" fill="#1E130F"/>
<path d="M218.763 64.0364V75.7311H215.899V73.5671C215.089 75.1191 213.691 75.8404 211.833 75.8404C209.211 75.8404 207.592 74.1137 207.592 71.3591V64.0364H210.456V70.5284C210.456 72.1671 211.396 73.1511 212.969 73.1511C214.807 73.1297 215.899 71.6871 215.899 69.8071V64.0364H218.763Z" fill="#1E130F"/>
<path d="M229.516 63.9274V66.6821C227.047 66.5288 225.539 67.9714 225.539 70.0914V75.7314H222.696V64.0368H225.539V66.2888C226.325 64.7581 227.701 63.9488 229.516 63.9274Z" fill="#1E130F"/>
<path d="M238.369 71.6649V70.6156H235.419C233.911 70.6156 233.211 71.0316 233.211 72.0582C233.211 73.0422 233.999 73.6756 235.288 73.6756C236.928 73.6756 238.216 72.8022 238.369 71.6649ZM238.392 75.7302V74.3102C237.583 75.3369 236.272 75.8622 234.611 75.8622C232.096 75.8622 230.523 74.3102 230.523 72.2329C230.523 70.0689 232.119 68.7356 234.96 68.7142H238.369V68.4076C238.369 67.0529 237.473 66.2449 235.725 66.2449C234.632 66.2449 233.451 66.6156 232.249 67.3369L231.221 65.3702C232.905 64.4302 234.216 63.9276 236.359 63.9276C239.419 63.9276 241.145 65.4796 241.167 68.0809L241.189 75.7302H238.392Z" fill="#1E130F"/>
<path d="M168.202 89.1752C165.317 89.1752 163.065 91.4045 163.065 94.2459C163.065 97.1099 165.317 99.3392 168.202 99.3392C169.666 99.3392 171.218 98.6619 172.355 97.5472L174.081 99.4712C172.507 101.066 170.257 102.094 168.049 102.094C163.546 102.094 160.07 98.7059 160.07 94.2899C160.07 89.9179 163.59 86.5739 168.158 86.5739C170.343 86.5739 172.573 87.5139 174.059 89.0219L172.355 91.1645C171.262 89.9405 169.71 89.1752 168.202 89.1752Z" fill="#1E130F"/>
<path d="M178.279 96.148C178.279 98.2467 179.633 99.6893 181.557 99.6893C183.504 99.6893 184.859 98.2467 184.859 96.148C184.859 94.0493 183.504 92.6293 181.557 92.6293C179.633 92.6293 178.279 94.0493 178.279 96.148ZM187.744 96.104C187.744 99.6667 185.229 102.072 181.557 102.072C177.908 102.072 175.393 99.6667 175.393 96.104C175.393 92.5627 177.908 90.1813 181.557 90.1813C185.229 90.1813 187.744 92.5627 187.744 96.104" fill="#1E130F"/>
<path d="M201.974 94.6615V101.963H199.112V95.4921C199.112 93.8535 198.128 92.8468 196.51 92.8468C194.586 92.8695 193.45 94.2895 193.45 96.2135V101.963H190.609V90.2681H193.45V92.4535C194.281 90.9015 195.745 90.1815 197.648 90.1588C200.334 90.1588 201.974 91.8855 201.974 94.6615Z" fill="#1E130F"/>
<path d="M212.402 101.241C211.506 101.788 210.499 102.093 209.472 102.093C207.57 102.093 206.04 101.001 206.04 98.5956V92.8249H204.402L204.379 90.7489H206.04V87.5356H208.86V90.7489H212.204V92.8249H208.86V98.0929C208.86 99.2076 209.319 99.5796 210.083 99.5796C210.564 99.5796 211.112 99.4049 211.746 99.0983L212.402 101.241Z" fill="#1E130F"/>
<path d="M222.806 95.2081C222.74 93.4815 221.582 92.3881 219.811 92.3881C218.128 92.3881 216.948 93.4815 216.686 95.2081H222.806ZM225.386 97.1095H216.751C217.122 98.7708 218.391 99.7761 220.095 99.7761C221.298 99.7761 222.412 99.3175 223.243 98.4655L224.774 100.06C223.615 101.328 221.91 102.072 219.855 102.072C216.227 102.072 213.843 99.6668 213.843 96.1481C213.843 92.5855 216.292 90.1815 219.79 90.1815C223.899 90.1815 225.67 92.8695 225.386 97.1095" fill="#1E130F"/>
<path d="M247.835 94.6615V101.963H244.971V95.4921C244.971 93.8308 243.987 92.8255 242.413 92.8255C240.577 92.8908 239.463 94.2895 239.463 96.1921V101.963H236.599V95.4921C236.599 93.8308 235.637 92.8255 234.063 92.8255C232.205 92.8908 231.091 94.2895 231.091 96.1921V101.963H228.249V90.2681H231.091V92.4321C231.899 90.8801 233.341 90.1815 235.2 90.1588C237.255 90.1588 238.676 91.1855 239.221 92.9575C239.987 91.0548 241.517 90.1815 243.572 90.1588C246.216 90.1588 247.835 91.8855 247.835 94.6615Z" fill="#1E130F"/>
<path d="M260.929 96.0823C260.929 94.0276 259.574 92.5636 257.65 92.5636C255.705 92.5636 254.35 94.0276 254.35 96.0823C254.35 98.1809 255.705 99.6236 257.65 99.6236C259.574 99.6236 260.929 98.1583 260.929 96.0823ZM263.814 96.1703C263.814 99.6889 261.65 102.072 258.327 102.072C256.558 102.072 255.202 101.35 254.35 100.061V106.204H251.507V90.2676H254.35V92.1916C255.181 90.9023 256.535 90.1809 258.283 90.1809C261.585 90.1809 263.814 92.5849 263.814 96.1703" fill="#1E130F"/>
<path d="M268.492 96.148C268.492 98.2467 269.847 99.6893 271.771 99.6893C273.717 99.6893 275.072 98.2467 275.072 96.148C275.072 94.0493 273.717 92.6293 271.771 92.6293C269.847 92.6293 268.492 94.0493 268.492 96.148ZM277.957 96.104C277.957 99.6667 275.443 102.072 271.771 102.072C268.121 102.072 265.608 99.6667 265.608 96.104C265.608 92.5627 268.121 90.1813 271.771 90.1813C275.443 90.1813 277.957 92.5627 277.957 96.104" fill="#1E130F"/>
<path d="M287.641 90.1589V92.9136C285.172 92.7603 283.664 94.2029 283.664 96.3229V101.963H280.821V90.2683H283.664V92.5203C284.451 90.9896 285.827 90.1803 287.641 90.1589Z" fill="#1E130F"/>
<path d="M295.053 88.7161H292.649L294.965 85.3281L297.763 86.4641L295.053 88.7161ZM296.494 97.8961V96.8468H293.543C292.035 96.8468 291.335 97.2628 291.335 98.2908C291.335 99.2735 292.123 99.9081 293.413 99.9081C295.053 99.9081 296.342 99.0335 296.494 97.8961M296.517 101.963V100.541C295.707 101.569 294.397 102.093 292.735 102.093C290.221 102.093 288.647 100.541 288.647 98.4655C288.647 96.3015 290.243 94.9681 293.085 94.9455H296.494V94.6401C296.494 93.2841 295.599 92.4761 293.85 92.4761C292.757 92.4761 291.577 92.8468 290.375 93.5681L289.347 91.6015C291.03 90.6615 292.341 90.1588 294.485 90.1588C297.543 90.1588 299.271 91.7108 299.293 94.3121L299.315 101.963H296.517Z" fill="#1E130F"/>
<path d="M314.266 94.6615V101.963H311.403V95.4921C311.403 93.8535 310.419 92.8468 308.802 92.8468C306.878 92.8695 305.742 94.2895 305.742 96.2135V101.963H302.901V90.2681H305.742V92.4535C306.573 90.9015 308.037 90.1815 309.939 90.1588C312.626 90.1588 314.266 91.8855 314.266 94.6615Z" fill="#1E130F"/>
<path d="M325.742 95.2081C325.677 93.4815 324.518 92.3881 322.747 92.3881C321.065 92.3881 319.885 93.4815 319.622 95.2081H325.742ZM328.322 97.1095H319.687C320.058 98.7708 321.327 99.7761 323.031 99.7761C324.234 99.7761 325.349 99.3175 326.179 98.4655L327.71 100.06C326.551 101.328 324.846 102.072 322.791 102.072C319.163 102.072 316.779 99.6668 316.779 96.1481C316.779 92.5855 319.229 90.1815 322.726 90.1815C326.835 90.1815 328.606 92.8695 328.322 97.1095" fill="#1E130F"/>
<path d="M338.071 97.8964V96.8471H335.12C333.612 96.8471 332.913 97.2631 332.913 98.2898C332.913 99.2738 333.7 99.9071 334.989 99.9071C336.629 99.9071 337.917 99.0338 338.071 97.8964M338.093 101.962V100.542C337.284 101.568 335.973 102.094 334.311 102.094C331.797 102.094 330.224 100.542 330.224 98.4644C330.224 96.3004 331.82 94.9671 334.661 94.9458H338.071V94.6391C338.071 93.2844 337.175 92.4764 335.427 92.4764C334.333 92.4764 333.152 92.8471 331.951 93.5684L330.923 91.6018C332.607 90.6618 333.917 90.1591 336.06 90.1591C339.12 90.1591 340.847 91.7111 340.868 94.3124L340.891 101.962H338.093Z" fill="#1E130F"/>
<path d="M63.4815 82.3783L63.6361 82.3823C64.0695 82.3889 64.5041 82.3943 64.9375 82.3943C80.3161 82.3943 94.8615 77.8316 107.316 69.1503C94.8615 60.4703 80.3161 55.9076 64.9375 55.9076C64.5041 55.9076 64.0695 55.9129 63.6361 55.9196L63.4495 55.9209L63.2628 55.9063L63.1388 55.9076C62.7468 55.9076 62.3535 55.9249 61.9708 55.9609C55.1921 56.5569 49.8948 62.3489 49.8948 69.1503C49.8948 75.9516 55.1921 81.7449 61.9535 82.3396C62.3535 82.3756 62.7468 82.3943 63.1388 82.3943L63.4815 82.3783ZM69.2161 8.14892C39.1735 8.14892 13.8481 29.6303 9.00013 59.2263C8.45879 62.4796 8.18546 65.8276 8.18546 69.1863C8.18546 72.5023 8.45613 75.8343 8.98946 79.0876C13.8148 108.716 39.1441 130.217 69.2161 130.217C95.4575 130.217 118.411 113.794 126.908 89.1583C123.247 83.6436 118.88 78.6583 113.884 74.2876C99.4495 84.9503 81.6828 90.6276 63.6748 90.3916C62.8801 90.4276 62.0388 90.3903 61.2361 90.3156C50.3935 89.3623 41.8868 80.0649 41.8868 69.1503C41.8868 58.2369 50.3935 48.9396 61.2521 47.9849C62.0348 47.9129 62.8801 47.8729 63.6748 47.9089C81.6801 47.6769 99.4508 53.3529 113.885 64.0156C118.863 59.6636 123.225 54.6836 126.895 49.1676C118.38 24.5543 95.4321 8.14892 69.2161 8.14892M69.2161 138.225C35.1988 138.225 6.54546 113.897 1.08546 80.3783C0.482793 76.7023 0.17746 72.9356 0.17746 69.1863C0.17746 65.3889 0.486796 61.5996 1.0988 57.9223C6.5828 24.4449 35.2308 0.140918 69.2161 0.140918C99.5735 0.140918 126.057 19.5903 135.117 48.5396L135.671 50.3036L134.684 51.8689C130.639 58.2916 125.765 64.0889 120.16 69.1516C125.785 74.2356 130.663 80.0409 134.699 86.4596L135.68 88.0209L135.131 89.7823C126.089 118.757 99.6001 138.225 69.2161 138.225" fill="#1E130F"/>
<path d="M137.333 75.2081C134.005 75.2081 131.308 72.5108 131.308 69.1828C131.308 65.8561 134.005 63.1575 137.333 63.1575C140.661 63.1575 143.36 65.8561 143.36 69.1828C143.36 72.5108 140.661 75.2081 137.333 75.2081Z" fill="#1E130F"/>
</svg>
